<?xml version="1.0" encoding="utf-8"?>
<!-- Generator: Adobe Illustrator 16.0.4, SVG Export Plug-In . SVG Version: 6.00 Build 0)  -->
<!DOCTYPE svg PUBLIC "-//W3C//DTD SVG 1.1//EN" "http://www.w3.org/Graphics/SVG/1.1/DTD/svg11.dtd">
<svg version="1.1" id="Capa_1" xmlns="http://www.w3.org/2000/svg" xmlns:xlink="http://www.w3.org/1999/xlink" x="0px" y="0px"
	 width="512px" height="512px" viewBox="0 0 512 512" enable-background="new 0 0 512 512" xml:space="preserve">
<path d="M448,128h-96V64c0-17.6-14.4-32-32-32H192c-17.6,0-32,14.4-32,32v64H64c-35.2,0-64,28.8-64,64v256c0,35.2,28.8,64,64,64h384
	c35.2,0,64-28.8,64-64V192C512,156.8,483.2,128,448,128z M192,64h128v64H192V64z M384,352h-96v96h-64v-96h-96v-64h96v-96h64v96h96
	V352z"/>
</svg>
