<?xml version="1.0" encoding="utf-8"?>
<!-- Generator: Adobe Illustrator 16.0.4, SVG Export Plug-In . SVG Version: 6.00 Build 0)  -->
<!DOCTYPE svg PUBLIC "-//W3C//DTD SVG 1.1//EN" "http://www.w3.org/Graphics/SVG/1.1/DTD/svg11.dtd">
<svg version="1.1" id="Capa_1" xmlns="http://www.w3.org/2000/svg" xmlns:xlink="http://www.w3.org/1999/xlink" x="0px" y="0px"
	 width="512px" height="512px" viewBox="0 0 512 512" enable-background="new 0 0 512 512" xml:space="preserve">
<path d="M288,274.745l54.627,54.628l-45.254,45.254L224,301.255V192h64V274.745z M416,32c53.02,0,96,42.98,96,96
	c0,32.492-16.145,61.209-40.846,78.579c-23.295-61.522-72.211-110.438-133.733-133.733C354.791,48.145,383.509,32,416,32z
	 M174.579,72.846C113.057,96.141,64.141,145.057,40.846,206.579C16.145,189.209,0,160.492,0,128c0-53.02,42.98-96,96-96
	C128.492,32,157.209,48.145,174.579,72.846z M256,96C149.961,96,64,181.961,64,288c0,46.337,16.416,88.839,43.747,122.01L96,512h32
	l32-57.69l-0.004-0.004C188.238,470.645,221.025,480,256,480c34.975,0,67.76-9.355,96.002-25.693L352,454.309L384,512h32
	l-11.751-101.984C431.583,376.843,448,334.34,448,288C448,181.961,362.039,96,256,96z M256,416c-70.692,0-128-57.309-128-128
	c0-70.692,57.308-128,128-128c70.692,0,128,57.308,128,128C384,358.691,326.692,416,256,416z"/>
</svg>
