<?xml version="1.0" encoding="utf-8"?>
<!-- Generator: Adobe Illustrator 16.0.4, SVG Export Plug-In . SVG Version: 6.00 Build 0)  -->
<!DOCTYPE svg PUBLIC "-//W3C//DTD SVG 1.1//EN" "http://www.w3.org/Graphics/SVG/1.1/DTD/svg11.dtd">
<svg version="1.1" id="Capa_1" xmlns="http://www.w3.org/2000/svg" xmlns:xlink="http://www.w3.org/1999/xlink" x="0px" y="0px"
	 width="512px" height="512px" viewBox="0 0 512 512" enable-background="new 0 0 512 512" xml:space="preserve">
<path d="M256,64C132.288,64,32,164.288,32,288s100.288,224,224,224s224-100.288,224-224S379.712,64,256,64z M256,468
	c-99.412,0-180-80.589-180-180c0-99.412,80.588-180,180-180c99.411,0,180,80.588,180,180C436,387.411,355.411,468,256,468z
	 M467.392,143.587C475.413,129.561,480,113.316,480,96c0-53.02-42.98-96-96-96c-30.909,0-58.401,14.611-75.96,37.298
	C373.982,50.916,430.643,89.897,467.392,143.587z M203.96,37.298C186.402,14.611,158.909,0,128,0C74.98,0,32,42.98,32,96
	c0,17.316,4.587,33.561,12.608,47.587C81.358,89.897,138.019,50.916,203.96,37.298z M224,160h32v160h-32V160z M256,288h96v32h-96
	V288z"/>
</svg>
