<?xml version="1.0" encoding="utf-8"?>
<!-- Generator: Adobe Illustrator 16.0.4, SVG Export Plug-In . SVG Version: 6.00 Build 0)  -->
<!DOCTYPE svg PUBLIC "-//W3C//DTD SVG 1.1//EN" "http://www.w3.org/Graphics/SVG/1.1/DTD/svg11.dtd">
<svg version="1.1" id="Capa_1" xmlns="http://www.w3.org/2000/svg" xmlns:xlink="http://www.w3.org/1999/xlink" x="0px" y="0px"
	 width="512px" height="512px" viewBox="0 0 512 512" enable-background="new 0 0 512 512" xml:space="preserve">
<path d="M256,512c141.385,0,256-114.615,256-256S397.385,0,256,0S0,114.615,0,256S114.615,512,256,512z M256,48
	c114.875,0,208,93.125,208,208s-93.125,208-208,208S48,370.875,48,256S141.125,48,256,48z M352.049,390.37
	C332.462,357.796,296.777,336,256,336c-40.778,0-76.462,21.796-96.049,54.37l-41.164-24.698C146.767,319.137,197.745,288,256,288
	c58.254,0,109.232,31.137,137.213,77.672L352.049,390.37z M383.521,140.12c2.142,8.572-3.07,17.259-11.642,19.402
	c-8.812,2.225-19.261,6.06-28.468,10.675c5.324,5.715,8.587,13.376,8.587,21.803c0,17.673-14.327,32-32,32s-32-14.327-32-32
	c0-0.585,0.019-1.165,0.049-1.742c1.017-23.727,22.606-39.473,40.796-48.569c17.371-8.685,34.551-13.03,35.274-13.211
	C372.691,126.334,381.377,131.547,383.521,140.12z M128.479,140.12c2.144-8.573,10.83-13.786,19.403-11.642
	c0.723,0.181,17.903,4.526,35.274,13.211c18.19,9.096,39.78,24.842,40.796,48.569c0.031,0.577,0.049,1.157,0.049,1.742
	c0,17.673-14.327,32-32,32s-32-14.327-32-32c0-8.427,3.263-16.088,8.587-21.803c-9.207-4.615-19.655-8.45-28.468-10.675
	C131.549,157.379,126.337,148.692,128.479,140.12z"/>
</svg>
