<?xml version="1.0" encoding="utf-8"?>
<!-- Generator: Adobe Illustrator 16.0.4, SVG Export Plug-In . SVG Version: 6.00 Build 0)  -->
<!DOCTYPE svg PUBLIC "-//W3C//DTD SVG 1.1//EN" "http://www.w3.org/Graphics/SVG/1.1/DTD/svg11.dtd">
<svg version="1.1" id="Capa_1" xmlns="http://www.w3.org/2000/svg" xmlns:xlink="http://www.w3.org/1999/xlink" x="0px" y="0px"
	 width="512px" height="512px" viewBox="0 0 512 512" enable-background="new 0 0 512 512" xml:space="preserve">
<path d="M438.627,201.373l-160-160c-12.496-12.497-32.757-12.497-45.254,0l-160,160c-12.497,12.497-12.497,32.758,0,45.255
	c12.497,12.498,32.758,12.498,45.255,0L224,141.255V448c0,17.673,14.327,32,32,32s32-14.327,32-32V141.255l105.373,105.373
	C399.621,252.876,407.811,256,416,256s16.379-3.124,22.627-9.373C451.124,234.13,451.124,213.87,438.627,201.373z"/>
</svg>
