<?xml version="1.0" encoding="utf-8"?>
<!-- Generator: Adobe Illustrator 16.0.4, SVG Export Plug-In . SVG Version: 6.00 Build 0)  -->
<!DOCTYPE svg PUBLIC "-//W3C//DTD SVG 1.1//EN" "http://www.w3.org/Graphics/SVG/1.1/DTD/svg11.dtd">
<svg version="1.1" id="Capa_1" xmlns="http://www.w3.org/2000/svg" xmlns:xlink="http://www.w3.org/1999/xlink" x="0px" y="0px"
	 width="512px" height="512px" viewBox="0 0 512 512" enable-background="new 0 0 512 512" xml:space="preserve">
<path d="M256,512C114.615,512,0,397.385,0,256S114.615,0,256,0s256,114.615,256,256S397.385,512,256,512z M256,48
	C141.125,48,48,141.125,48,256s93.125,208,208,208s208-93.125,208-208S370.875,48,256,48z M192,384c-17.673,0-32-14.327-32-32
	s14.327-32,32-32h82.744L137.373,182.628c-12.497-12.497-12.497-32.759,0-45.256C143.621,131.124,151.811,128,160,128
	s16.379,3.124,22.627,9.372L320,274.745V192c0-17.673,14.327-32,32-32s32,14.327,32,32v192H192z"/>
</svg>
