<?xml version="1.0" encoding="utf-8"?>
<!-- Generator: Adobe Illustrator 16.0.4, SVG Export Plug-In . SVG Version: 6.00 Build 0)  -->
<!DOCTYPE svg PUBLIC "-//W3C//DTD SVG 1.1//EN" "http://www.w3.org/Graphics/SVG/1.1/DTD/svg11.dtd">
<svg version="1.1" id="Capa_1" xmlns="http://www.w3.org/2000/svg" xmlns:xlink="http://www.w3.org/1999/xlink" x="0px" y="0px"
	 width="512px" height="512px" viewBox="0 0 512 512" enable-background="new 0 0 512 512" xml:space="preserve">
<path d="M512,256C512,114.615,397.385,0,256,0S0,114.615,0,256s114.615,256,256,256S512,397.385,512,256z M48,256
	c0-114.875,93.125-208,208-208s208,93.125,208,208s-93.125,208-208,208S48,370.875,48,256z M278.627,406.628l128-128.001
	c12.497-12.496,12.497-32.757,0-45.254s-32.758-12.497-45.255,0L288,306.745V128c0-17.673-14.327-32-32-32s-32,14.327-32,32v178.745
	l-73.372-73.373c-12.497-12.497-32.759-12.497-45.256,0C99.124,239.621,96,247.811,96,256c0,8.189,3.124,16.379,9.372,22.627
	l128,128.001C245.869,419.124,266.131,419.124,278.627,406.628z"/>
</svg>
