<?xml version="1.0" encoding="utf-8"?>
<!-- Generator: Adobe Illustrator 16.0.4, SVG Export Plug-In . SVG Version: 6.00 Build 0)  -->
<!DOCTYPE svg PUBLIC "-//W3C//DTD SVG 1.1//EN" "http://www.w3.org/Graphics/SVG/1.1/DTD/svg11.dtd">
<svg version="1.1" id="Capa_1" xmlns="http://www.w3.org/2000/svg" xmlns:xlink="http://www.w3.org/1999/xlink" x="0px" y="0px"
	 width="512px" height="512px" viewBox="0 0 512 512" enable-background="new 0 0 512 512" xml:space="preserve">
<path d="M310.627,438.627l160-160c12.497-12.496,12.497-32.758,0-45.255l-160-160c-12.497-12.496-32.758-12.496-45.255,0
	c-12.497,12.497-12.497,32.758,0,45.255L370.745,224H64c-17.673,0-32,14.327-32,32s14.327,32,32,32h306.745L265.372,393.373
	C259.124,399.621,256,407.811,256,416s3.124,16.379,9.372,22.627C277.869,451.124,298.13,451.124,310.627,438.627z"/>
</svg>
