<?xml version="1.0" encoding="utf-8"?>
<!-- Generator: Adobe Illustrator 16.0.4, SVG Export Plug-In . SVG Version: 6.00 Build 0)  -->
<!DOCTYPE svg PUBLIC "-//W3C//DTD SVG 1.1//EN" "http://www.w3.org/Graphics/SVG/1.1/DTD/svg11.dtd">
<svg version="1.1" id="Capa_1" xmlns="http://www.w3.org/2000/svg" xmlns:xlink="http://www.w3.org/1999/xlink" x="0px" y="0px"
	 width="512px" height="512px" viewBox="0 0 512 512" enable-background="new 0 0 512 512" xml:space="preserve">
<path d="M256,0C114.615,0,0,114.615,0,256s114.615,256,256,256s256-114.615,256-256S397.385,0,256,0z M256,464
	c-114.875,0-208-93.125-208-208S141.125,48,256,48s208,93.125,208,208S370.875,464,256,464z M406.628,233.373l-128.001-128
	c-12.496-12.497-32.757-12.497-45.254,0s-12.497,32.758,0,45.255L306.745,224H128c-17.673,0-32,14.327-32,32s14.327,32,32,32
	h178.745l-73.373,73.372c-12.497,12.497-12.497,32.759,0,45.256C239.621,412.876,247.811,416,256,416
	c8.189,0,16.379-3.124,22.627-9.372l128.001-128C419.124,266.131,419.124,245.869,406.628,233.373z"/>
</svg>
