<?xml version="1.0" encoding="utf-8"?>
<!-- Generator: Adobe Illustrator 16.0.4, SVG Export Plug-In . SVG Version: 6.00 Build 0)  -->
<!DOCTYPE svg PUBLIC "-//W3C//DTD SVG 1.1//EN" "http://www.w3.org/Graphics/SVG/1.1/DTD/svg11.dtd">
<svg version="1.1" id="Capa_1" xmlns="http://www.w3.org/2000/svg" xmlns:xlink="http://www.w3.org/1999/xlink" x="0px" y="0px"
	 width="512px" height="512px" viewBox="0 0 512 512" enable-background="new 0 0 512 512" xml:space="preserve">
<path d="M0,64h64v320H0V64z M96,64h32v320H96V64z M160,64h32v320h-32V64z M256,64h32v320h-32V64z M384,64h32v320h-32V64z M480,64h32
	v320h-32V64z M320,64h16v320h-16V64z M224,64h16v320h-16V64z M432,64h16v320h-16V64z M0,416h32v32H0V416z M96,416h32v32H96V416z
	 M160,416h32v32h-32V416z M320,416h32v32h-32V416z M480,416h32v32h-32V416z M384,416h64v32h-64V416z M224,416h64v32h-64V416z"/>
</svg>
