<?xml version="1.0" encoding="utf-8"?>
<!-- Generator: Adobe Illustrator 16.0.4, SVG Export Plug-In . SVG Version: 6.00 Build 0)  -->
<!DOCTYPE svg PUBLIC "-//W3C//DTD SVG 1.1//EN" "http://www.w3.org/Graphics/SVG/1.1/DTD/svg11.dtd">
<svg version="1.1" id="Capa_1" xmlns="http://www.w3.org/2000/svg" xmlns:xlink="http://www.w3.org/1999/xlink" x="0px" y="0px"
	 width="512px" height="512px" viewBox="0 0 512 512" enable-background="new 0 0 512 512" xml:space="preserve">
<path d="M160,32H32v128h128V32z M192,0L192,0v192H0V0H192z M64,64h64v64H64V64z M480,32H352v128h128V32z M512,0L512,0v192H320V0H512
	z M384,64h64v64h-64V64z M160,352H32v128h128V352z M192,320L192,320v192H0V320H192z M64,384h64v64H64V384z M224,0h32v32h-32V0z
	 M256,32h32v32h-32V32z M224,64h32v32h-32V64z M256,96h32v32h-32V96z M224,128h32v32h-32V128z M256,160h32v32h-32V160z M224,192h32
	v32h-32V192z M224,256h32v32h-32V256z M256,288h32v32h-32V288z M224,320h32v32h-32V320z M256,352h32v32h-32V352z M224,384h32v32h-32
	V384z M256,416h32v32h-32V416z M224,448h32v32h-32V448z M256,480h32v32h-32V480z M480,256h32v32h-32V256z M32,256h32v32H32V256z
	 M64,224h32v32H64V224z M0,224h32v32H0V224z M128,224h32v32h-32V224z M160,256h32v32h-32V256z M192,224h32v32h-32V224z M288,256h32
	v32h-32V256z M320,224h32v32h-32V224z M352,256h32v32h-32V256z M384,224h32v32h-32V224z M416,256h32v32h-32V256z M448,224h32v32h-32
	V224z M480,320h32v32h-32V320z M288,320h32v32h-32V320z M320,288h32v32h-32V288z M352,320h32v32h-32V320z M416,320h32v32h-32V320z
	 M448,288h32v32h-32V288z M480,384h32v32h-32V384z M288,384h32v32h-32V384z M320,352h32v32h-32V352z M384,352h32v32h-32V352z
	 M416,384h32v32h-32V384z M448,352h32v32h-32V352z M480,448h32v32h-32V448z M320,416h32v32h-32V416z M352,448h32v32h-32V448z
	 M384,416h32v32h-32V416z M416,448h32v32h-32V448z M320,480h32v32h-32V480z M384,480h32v32h-32V480z M448,480h32v32h-32V480z"/>
</svg>
