<?xml version="1.0" encoding="utf-8"?>
<!-- Generator: Adobe Illustrator 16.0.4, SVG Export Plug-In . SVG Version: 6.00 Build 0)  -->
<!DOCTYPE svg PUBLIC "-//W3C//DTD SVG 1.1//EN" "http://www.w3.org/Graphics/SVG/1.1/DTD/svg11.dtd">
<svg version="1.1" id="Capa_1" xmlns="http://www.w3.org/2000/svg" xmlns:xlink="http://www.w3.org/1999/xlink" x="0px" y="0px"
	 width="512px" height="512px" viewBox="0 0 512 512" enable-background="new 0 0 512 512" xml:space="preserve">
<path d="M426.674,0H85.325C38.202,0,0,38.209,0,85.341v341.318C0,473.792,38.202,512,85.325,512h341.348
	c47.125,0,85.324-38.208,85.324-85.341L512,85.341C512,38.209,473.798,0,426.674,0z M448,324.049
	C448,392.544,392.257,448,323.278,448H188.869C119.941,448,64,392.544,64,324.049V188c0.048-68.5,55.94-124,124.869-124h62.934
	C320.779,64,376.002,115.5,376,184c0.901,12.847,12.461,24,25.646,24h0.447h21.078C436.959,208,448,222.467,448,236.156V324.049z
	 M352,320c0,17.6-14.4,32-32,32H192c-17.6,0-32-14.4-32-32l0,0c0-17.6,14.4-32,32-32h128C337.6,288,352,302.4,352,320L352,320z
	 M288,192c0,17.6-14.4,32-32,32h-64c-17.6,0-32-14.4-32-32l0,0c0-17.6,14.4-32,32-32h64C273.6,160,288,174.4,288,192L288,192z"/>
</svg>
