<?xml version="1.0" encoding="utf-8"?>
<!-- Generator: Adobe Illustrator 16.0.4, SVG Export Plug-In . SVG Version: 6.00 Build 0)  -->
<!DOCTYPE svg PUBLIC "-//W3C//DTD SVG 1.1//EN" "http://www.w3.org/Graphics/SVG/1.1/DTD/svg11.dtd">
<svg version="1.1" id="Capa_1" xmlns="http://www.w3.org/2000/svg" xmlns:xlink="http://www.w3.org/1999/xlink" x="0px" y="0px"
	 width="512px" height="512px" viewBox="0 0 512 512" enable-background="new 0 0 512 512" xml:space="preserve">
<path d="M192,96c123.712,0,224,100.289,224,224h-48c0-47.012-18.307-91.209-51.549-124.451C283.209,162.307,239.011,144,192,144V96z
	 M192,0c176.73,0,320,143.27,320,320h-48c0-36.74-7.185-72.357-21.355-105.859c-13.697-32.384-33.316-61.478-58.312-86.474
	c-24.996-24.996-54.09-44.615-86.474-58.312C264.357,55.185,228.741,48,192,48V0z M287.195,224.804
	c21.879,21.878,32.798,50.553,32.785,79.225C288,352.027,288,416,288,416c-128,0-224,96-224,96l-7-7l-11.565-11.565l141.791-141.79
	c1.558,0.232,3.151,0.355,4.774,0.355c17.673,0,32-14.327,32-32s-14.327-32-32-32s-32,14.327-32,32c0,1.623,0.123,3.217,0.356,4.773
	L18.565,466.565L0,448c0,0,96-96,96-224c0,0,63.999,0,111.999-32C236.663,192,265.326,202.935,287.195,224.804z"/>
</svg>
