<?xml version="1.0" encoding="utf-8"?>
<!-- Generator: Adobe Illustrator 16.0.4, SVG Export Plug-In . SVG Version: 6.00 Build 0)  -->
<!DOCTYPE svg PUBLIC "-//W3C//DTD SVG 1.1//EN" "http://www.w3.org/Graphics/SVG/1.1/DTD/svg11.dtd">
<svg version="1.1" id="Capa_1" xmlns="http://www.w3.org/2000/svg" xmlns:xlink="http://www.w3.org/1999/xlink" x="0px" y="0px"
	 width="512px" height="512px" viewBox="0 0 512 512" enable-background="new 0 0 512 512" xml:space="preserve">
<path d="M478.898,192h-28.104h-0.6c-17.583,0-32.994-14.871-34.195-32l0,0C416.002,68.666,342.371,0,250.405,0h-83.912
	C74.587,0,0.065,74,0,165.333v181.399C0,438.059,74.587,512,166.492,512h179.21C437.676,512,512,438.059,512,346.732V229.541
	C512,211.29,497.28,192,478.898,192z M160,128h96c17.6,0,32,14.4,32,32s-14.4,32-32,32h-96c-17.6,0-32-14.4-32-32S142.4,128,160,128
	z M352,384H160c-17.6,0-32-14.4-32-32s14.4-32,32-32h192c17.6,0,32,14.4,32,32S369.6,384,352,384z"/>
</svg>
