<?xml version="1.0" encoding="utf-8"?>
<!-- Generator: Adobe Illustrator 16.0.4, SVG Export Plug-In . SVG Version: 6.00 Build 0)  -->
<!DOCTYPE svg PUBLIC "-//W3C//DTD SVG 1.1//EN" "http://www.w3.org/Graphics/SVG/1.1/DTD/svg11.dtd">
<svg version="1.1" id="Capa_1" xmlns="http://www.w3.org/2000/svg" xmlns:xlink="http://www.w3.org/1999/xlink" x="0px" y="0px"
	 width="512px" height="512px" viewBox="0 0 512 512" enable-background="new 0 0 512 512" xml:space="preserve">
<path d="M480,128H352V96c0-17.6-14.4-32-32-32H192c-17.602,0-32,14.4-32,32v32H32c-17.6,0-32,14.4-32,32v288
	c0,17.601,14.398,32,32,32h448c17.6,0,32-14.399,32-32V160C512,142.4,497.6,128,480,128z M192,96.058
	c0.017-0.02,0.037-0.041,0.057-0.058h127.886c0.021,0.017,0.041,0.038,0.059,0.058V128H192V96.058z M480,256h-64v48
	c0,8.801-7.2,16-16,16h-32c-8.802,0-16-7.199-16-16v-48H160v48c0,8.801-7.2,16-16,16h-32c-8.801,0-16-7.199-16-16v-48H32v-32h448
	V256z"/>
</svg>
