<?xml version="1.0" encoding="utf-8"?>
<!-- Generator: Adobe Illustrator 16.0.4, SVG Export Plug-In . SVG Version: 6.00 Build 0)  -->
<!DOCTYPE svg PUBLIC "-//W3C//DTD SVG 1.1//EN" "http://www.w3.org/Graphics/SVG/1.1/DTD/svg11.dtd">
<svg version="1.1" id="Capa_1" xmlns="http://www.w3.org/2000/svg" xmlns:xlink="http://www.w3.org/1999/xlink" x="0px" y="0px"
	 width="512px" height="512px" viewBox="0 0 512 512" enable-background="new 0 0 512 512" xml:space="preserve">
<path d="M256,211c-24.813,0-45,20.187-45,45c0,24.812,20.187,45,45,45c24.812,0,45-20.188,45-45C301,231.187,280.812,211,256,211z
	 M256,160L256,160c53.02,0,96,42.98,96,96c0,53.02-42.98,96-96,96c-53.02,0-96-42.98-96-96C160,202.98,202.98,160,256,160z
	 M438.627,393.373c12.498,12.497,12.497,32.758,0,45.254c-12.497,12.498-32.757,12.498-45.254,0l-32-32
	c-12.498-12.497-12.498-32.757,0-45.254c12.496-12.497,32.757-12.498,45.254,0L438.627,393.373z M150.627,105.373
	c12.498,12.497,12.497,32.758,0,45.254c-12.497,12.498-32.757,12.498-45.254,0l-32-32c-12.498-12.497-12.498-32.757,0-45.254
	c12.496-12.497,32.757-12.498,45.254,0L150.627,105.373z M393.372,73.373c12.497-12.498,32.758-12.497,45.254,0
	c12.498,12.497,12.498,32.757,0.001,45.254l-32,32c-12.498,12.498-32.758,12.498-45.254,0c-12.498-12.496-12.498-32.757,0-45.254
	L393.372,73.373z M105.373,361.373c12.497-12.498,32.757-12.497,45.254,0c12.498,12.497,12.498,32.757,0,45.254l-32,32
	c-12.497,12.498-32.757,12.498-45.254,0c-12.497-12.496-12.498-32.757,0-45.254L105.373,361.373z M256,32c17.673,0,32,14.327,32,32
	v32c0,17.673-14.327,32-32,32s-32-14.327-32-32V64C224,46.327,238.327,32,256,32z M256,384c17.673,0,32,14.326,32,32v32
	c0,17.674-14.327,32-32,32s-32-14.326-32-32v-32C224,398.326,238.327,384,256,384z M32,256c0-17.673,14.327-32,32-32h32
	c17.673,0,32,14.327,32,32c0,17.674-14.327,32-32,32H64C46.327,288,32,273.674,32,256z M384,256c0-17.673,14.326-32,32-32h32
	c17.674,0,32,14.327,32,32s-14.326,32-32,32h-32C398.326,288,384,273.673,384,256z"/>
</svg>
