<?xml version="1.0" encoding="utf-8"?>
<!-- Generator: Adobe Illustrator 16.0.4, SVG Export Plug-In . SVG Version: 6.00 Build 0)  -->
<!DOCTYPE svg PUBLIC "-//W3C//DTD SVG 1.1//EN" "http://www.w3.org/Graphics/SVG/1.1/DTD/svg11.dtd">
<svg version="1.1" id="Capa_1" xmlns="http://www.w3.org/2000/svg" xmlns:xlink="http://www.w3.org/1999/xlink" x="0px" y="0px"
	 width="512px" height="512px" viewBox="0 0 512 512" enable-background="new 0 0 512 512" xml:space="preserve">
<path d="M512,288v-32h-96.645c-2.932-36.343-15.894-69.513-35.836-96.125h80.973l35.03-140.12l-31.046-7.761l-28.97,115.88h-87.34
	c-0.446-0.347-0.898-0.687-1.349-1.028c3.354-9.751,5.181-20.211,5.181-31.097C352,42.869,309.02,0,256,0
	c-53.02,0-96,42.869-96,95.75c0,10.886,1.825,21.346,5.181,31.097c-0.45,0.342-0.902,0.681-1.349,1.028h-87.34l-28.97-115.88
	l-31.045,7.761l35.03,140.12h80.972C112.537,186.487,99.576,219.657,96.645,256H0v32h96.685
	c1.901,22.832,7.754,44.406,16.819,63.875H51.508l-35.03,140.119l31.045,7.762l28.97-115.881h56.177
	c29.346,39.016,73.698,63.875,123.33,63.875s93.983-24.859,123.331-63.875h56.177l28.97,115.881l31.046-7.762l-35.03-140.119
	h-61.996c9.065-19.469,14.918-41.043,16.818-63.875H512z"/>
</svg>
