<?xml version="1.0" encoding="utf-8"?>
<!-- Generator: Adobe Illustrator 16.0.4, SVG Export Plug-In . SVG Version: 6.00 Build 0)  -->
<!DOCTYPE svg PUBLIC "-//W3C//DTD SVG 1.1//EN" "http://www.w3.org/Graphics/SVG/1.1/DTD/svg11.dtd">
<svg version="1.1" id="Capa_1" xmlns="http://www.w3.org/2000/svg" xmlns:xlink="http://www.w3.org/1999/xlink" x="0px" y="0px"
	 width="512px" height="512px" viewBox="0 0 512 512" enable-background="new 0 0 512 512" xml:space="preserve">
<path d="M192,32H32C14.4,32,0,46.4,0,64v160c0,17.6,14.398,32,32,32h160c17.6,0,32-14.4,32-32V64C224,46.4,209.6,32,192,32z
	 M192,160H32v-32h160V160z M448,32H288c-17.602,0-32,14.4-32,32v416c0,17.6,14.398,32,32,32h160c17.6,0,32-14.4,32-32V64
	C480,46.4,465.6,32,448,32z M448,320H288v-32h160V320z M448,224H288v-32h160V224z M192,288H32c-17.6,0-32,14.4-32,32v160
	c0,17.6,14.398,32,32,32h160c17.6,0,32-14.4,32-32V320C224,302.4,209.6,288,192,288z M192,416h-64v64H96v-64H32v-32h64v-64h32v64h64
	V416z"/>
</svg>
