<?xml version="1.0" encoding="utf-8"?>
<!-- Generator: Adobe Illustrator 16.0.4, SVG Export Plug-In . SVG Version: 6.00 Build 0)  -->
<!DOCTYPE svg PUBLIC "-//W3C//DTD SVG 1.1//EN" "http://www.w3.org/Graphics/SVG/1.1/DTD/svg11.dtd">
<svg version="1.1" id="Capa_1" xmlns="http://www.w3.org/2000/svg" xmlns:xlink="http://www.w3.org/1999/xlink" x="0px" y="0px"
	 width="512px" height="512px" viewBox="0 0 512 512" enable-background="new 0 0 512 512" xml:space="preserve">
<path d="M416,160V80c0-8.8-7.2-16-16-16H288V32c0-17.6-14.4-32-32-32h-64c-17.602,0-32,14.4-32,32v32H48c-8.801,0-16,7.2-16,16v320
	c0,8.8,7.199,16,16,16h144v96h224l96-96V160H416z M192,32.057c0.017-0.019,0.036-0.039,0.057-0.057h63.884
	c0.021,0.018,0.041,0.038,0.059,0.057V64h-64V32.057z M96,128V96h256v32H96z M416,466.745V416h50.745L416,466.745z M480,384h-96v96
	H224V192h256V384z"/>
</svg>
