<?xml version="1.0" encoding="utf-8"?>
<!-- Generator: Adobe Illustrator 16.0.4, SVG Export Plug-In . SVG Version: 6.00 Build 0)  -->
<!DOCTYPE svg PUBLIC "-//W3C//DTD SVG 1.1//EN" "http://www.w3.org/Graphics/SVG/1.1/DTD/svg11.dtd">
<svg version="1.1" id="Capa_1" xmlns="http://www.w3.org/2000/svg" xmlns:xlink="http://www.w3.org/1999/xlink" x="0px" y="0px"
	 width="512px" height="512px" viewBox="0 0 512 512" enable-background="new 0 0 512 512" xml:space="preserve">
<path d="M512,304.047v-96.094l-73.387-12.231c-2.979-9.066-6.611-17.834-10.848-26.25l43.228-60.517l-67.948-67.949l-60.413,43.152
	c-8.455-4.277-17.269-7.944-26.384-10.951L304.047,0h-96.094l-12.201,73.208c-9.115,3.007-17.929,6.674-26.383,10.951
	l-60.414-43.152l-67.949,67.949l43.227,60.518c-4.235,8.415-7.867,17.183-10.846,26.249L0,207.953v96.094l73.559,12.26
	c2.98,8.984,6.605,17.674,10.821,26.016l-43.374,60.724l67.949,67.948l60.827-43.447c8.301,4.175,16.945,7.764,25.882,10.717
	L207.953,512h96.094l12.289-73.737c8.938-2.953,17.581-6.542,25.883-10.716l60.826,43.446l67.948-67.948l-43.372-60.723
	c4.216-8.342,7.839-17.031,10.82-26.016L512,304.047z M256,320c-35.346,0-64-28.652-64-64c0-35.346,28.654-64,64-64
	c35.348,0,64,28.654,64,64C320,291.348,291.348,320,256,320z"/>
</svg>
