<?xml version="1.0" encoding="utf-8"?>
<!-- Generator: Adobe Illustrator 16.0.4, SVG Export Plug-In . SVG Version: 6.00 Build 0)  -->
<!DOCTYPE svg PUBLIC "-//W3C//DTD SVG 1.1//EN" "http://www.w3.org/Graphics/SVG/1.1/DTD/svg11.dtd">
<svg version="1.1" id="Capa_1" xmlns="http://www.w3.org/2000/svg" xmlns:xlink="http://www.w3.org/1999/xlink" x="0px" y="0px"
	 width="512px" height="512px" viewBox="0 0 512 512" enable-background="new 0 0 512 512" xml:space="preserve">
<path d="M181.861,361.025l20.649-28.907l-22.627-22.628l-28.909,20.648c-5.361-2.998-11.102-5.388-17.133-7.097L128,288H96
	l-5.84,35.043c-6.031,1.709-11.772,4.1-17.133,7.096L44.118,309.49L21.49,332.118l20.649,28.907
	c-2.997,5.36-5.387,11.104-7.096,17.134L0,384v32l35.043,5.841c1.709,6.03,4.099,11.772,7.096,17.133L21.49,467.882l22.627,22.628
	l28.909-20.647c5.361,2.997,11.102,5.387,17.133,7.096L96,512h32l5.84-35.043c6.031-1.709,11.772-4.099,17.133-7.096l28.909,20.647
	l22.627-22.628l-20.649-28.908c2.997-5.359,5.387-11.103,7.096-17.133L224,416v-32l-35.043-5.841
	C187.248,372.129,184.858,366.387,181.861,361.025z M112,432c-17.674,0-32-14.327-32-32s14.326-32,32-32s32,14.327,32,32
	S129.674,432,112,432z M512,192v-32l-33.691-6.125c-0.621-4.023-1.416-7.989-2.361-11.895l28.778-18.55L492.48,93.866l-33.473,7.234
	c-2.106-3.455-4.363-6.81-6.746-10.065l19.503-28.171l-22.628-22.627L420.966,59.74c-3.256-2.383-6.609-4.638-10.064-6.747
	l7.233-33.472L388.571,7.274l-18.55,28.779c-3.906-0.946-7.872-1.741-11.896-2.362L352,0h-32l-6.126,33.691
	c-4.023,0.621-7.988,1.416-11.896,2.362L283.43,7.274L253.866,19.52l7.233,33.472c-3.455,2.108-6.81,4.364-10.064,6.747
	l-28.171-19.503l-22.627,22.627l19.503,28.171c-2.383,3.255-4.639,6.61-6.747,10.065l-33.472-7.234l-12.246,29.564l28.779,18.55
	c-0.946,3.906-1.741,7.871-2.362,11.895L160,160v32l33.691,6.125c0.621,4.023,1.416,7.989,2.362,11.895l-28.779,18.55l12.246,29.564
	l33.472-7.234c2.108,3.455,4.364,6.809,6.747,10.065l-19.503,28.171l22.627,22.628l28.171-19.503
	c3.255,2.384,6.61,4.638,10.065,6.746l-7.234,33.472l29.564,12.246l18.551-28.779c3.904,0.947,7.87,1.742,11.894,2.363L320,352h32
	l6.126-33.691c4.022-0.621,7.988-1.416,11.896-2.361l18.55,28.779l29.563-12.246l-7.233-33.473c3.454-2.107,6.81-4.363,10.064-6.746
	l28.171,19.504l22.628-22.629l-19.503-28.171c2.383-3.256,4.639-6.61,6.746-10.065l33.473,7.234l12.245-29.565l-28.778-18.55
	c0.945-3.906,1.74-7.871,2.361-11.895L512,192z M336,245.6c-38.439,0-69.6-31.161-69.6-69.6s31.16-69.6,69.6-69.6
	c38.44,0,69.6,31.161,69.6,69.6S374.44,245.6,336,245.6z"/>
</svg>
