<?xml version="1.0" encoding="utf-8"?>
<!-- Generator: Adobe Illustrator 16.0.4, SVG Export Plug-In . SVG Version: 6.00 Build 0)  -->
<!DOCTYPE svg PUBLIC "-//W3C//DTD SVG 1.1//EN" "http://www.w3.org/Graphics/SVG/1.1/DTD/svg11.dtd">
<svg version="1.1" id="Capa_1" xmlns="http://www.w3.org/2000/svg" xmlns:xlink="http://www.w3.org/1999/xlink" x="0px" y="0px"
	 width="512px" height="512px" viewBox="0 0 512 512" enable-background="new 0 0 512 512" xml:space="preserve">
<path d="M400,0H80C53.6,0,32,21.6,32,48v416c0,26.4,21.6,48,48,48h320c26.4,0,48-21.6,48-48V48C448,21.6,426.4,0,400,0z M240,496
	c-8.836,0-16-7.163-16-16s7.164-16,16-16s16,7.163,16,16S248.836,496,240,496z M384,448H96V64h288V448z"/>
</svg>
