<?xml version="1.0" encoding="utf-8"?>
<!-- Generator: Adobe Illustrator 16.0.4, SVG Export Plug-In . SVG Version: 6.00 Build 0)  -->
<!DOCTYPE svg PUBLIC "-//W3C//DTD SVG 1.1//EN" "http://www.w3.org/Graphics/SVG/1.1/DTD/svg11.dtd">
<svg version="1.1" id="Capa_1" xmlns="http://www.w3.org/2000/svg" xmlns:xlink="http://www.w3.org/1999/xlink" x="0px" y="0px"
	 width="512px" height="512px" viewBox="0 0 512 512" enable-background="new 0 0 512 512" xml:space="preserve">
<path d="M256,0C114.615,0,0,114.615,0,256s114.613,256,256,256c141.385,0,256-114.615,256-256S397.385,0,256,0z M256,416
	c-24.229,0-47.192-5.398-67.771-15.041l16.581-27.639C220.488,380.177,237.793,384,256,384c46.604,0,87.386-24.909,109.771-62.139
	l27.44,16.467C365.23,384.863,314.255,416,256,416z M416,192c0,17.6-14.4,32-32,32h-64c-17.6,0-32-14.4-32-32h-64
	c0,17.6-14.4,32-32,32h-64c-17.6,0-32-14.4-32-32v-48c0-8.8,7.2-16,16-16h96c8.8,0,16,7.2,16,16v16h64v-16c0-8.8,7.2-16,16-16h96
	c8.8,0,16,7.2,16,16V192z"/>
</svg>
