<?xml version="1.0" encoding="utf-8"?>
<!-- Generator: Adobe Illustrator 16.0.4, SVG Export Plug-In . SVG Version: 6.00 Build 0)  -->
<!DOCTYPE svg PUBLIC "-//W3C//DTD SVG 1.1//EN" "http://www.w3.org/Graphics/SVG/1.1/DTD/svg11.dtd">
<svg version="1.1" id="Capa_1" xmlns="http://www.w3.org/2000/svg" xmlns:xlink="http://www.w3.org/1999/xlink" x="0px" y="0px"
	 width="512px" height="512px" viewBox="0 0 512 512" enable-background="new 0 0 512 512" xml:space="preserve">
<path d="M426.688,0H85.343C38.405,0,0,38.408,0,85.346v341.312C0,473.623,38.405,512,85.343,512h341.345
	C473.625,512,512,473.624,512,426.658V85.346C512,38.408,473.625,0,426.688,0z M480,426.658c0,14.167-5.57,27.541-15.685,37.658
	C454.204,474.43,440.841,480,426.688,480H256V256H32V85.346c0-14.154,5.575-27.525,15.698-37.648C57.82,37.575,71.19,32,85.343,32
	H256v224h224V426.658z"/>
</svg>
