<?xml version="1.0" encoding="utf-8"?>
<!-- Generator: Adobe Illustrator 16.0.4, SVG Export Plug-In . SVG Version: 6.00 Build 0)  -->
<!DOCTYPE svg PUBLIC "-//W3C//DTD SVG 1.1//EN" "http://www.w3.org/Graphics/SVG/1.1/DTD/svg11.dtd">
<svg version="1.1" id="Capa_1" xmlns="http://www.w3.org/2000/svg" xmlns:xlink="http://www.w3.org/1999/xlink" x="0px" y="0px"
	 width="512px" height="512px" viewBox="0 0 512 512" enable-background="new 0 0 512 512" xml:space="preserve">
<path d="M432,96H176c-44,0-80,36-80,80v256c0,44,36,80,80,80h256c44,0,80-36,80-80V176C512,132,476,96,432,96z M208,448
	c-26.51,0-48-21.49-48-48s21.49-48,48-48s48,21.49,48,48S234.51,448,208,448z M208,256c-26.51,0-48-21.49-48-48s21.49-48,48-48
	s48,21.49,48,48S234.51,256,208,256z M304,352c-26.51,0-48-21.49-48-48s21.49-48,48-48s48,21.49,48,48S330.51,352,304,352z M400,448
	c-26.51,0-48-21.49-48-48s21.49-48,48-48s48,21.49,48,48S426.51,448,400,448z M400,256c-26.51,0-48-21.49-48-48s21.49-48,48-48
	s48,21.49,48,48S426.51,256,400,256z M414.38,64C406.915,27.598,374.525,0,336,0H80C36,0,0,36,0,80v256
	c0,38.523,27.598,70.915,64,78.38V96c0-17.6,14.4-32,32-32H414.38z"/>
</svg>
