<?xml version="1.0" encoding="utf-8"?>
<!-- Generator: Adobe Illustrator 16.0.4, SVG Export Plug-In . SVG Version: 6.00 Build 0)  -->
<!DOCTYPE svg PUBLIC "-//W3C//DTD SVG 1.1//EN" "http://www.w3.org/Graphics/SVG/1.1/DTD/svg11.dtd">
<svg version="1.1" id="Capa_1" xmlns="http://www.w3.org/2000/svg" xmlns:xlink="http://www.w3.org/1999/xlink" x="0px" y="0px"
	 width="512px" height="512px" viewBox="0 0 512 512" enable-background="new 0 0 512 512" xml:space="preserve">
<path d="M269.376,257.962C170.7,289.859,118.19,376.801,113.855,384.223c-30.558-33.921-49.187-78.787-49.187-127.929
	c0-1.958,0.039-3.905,0.098-5.848c8.372,0.171,101.09,1.366,196.638-27.229c5.477,10.72,10.709,21.601,15.513,32.47
	C274.385,256.4,271.871,257.157,269.376,257.962z M382.833,113.173c-3.441,4.902-32.243,43.615-100.278,69.114
	c-31.352-57.603-66.103-104.925-71.391-112.006c14.388-3.468,29.399-5.32,44.837-5.32
	C304.616,64.961,349.045,83.196,382.833,113.173z M245.594,193.794c-89.498,23.766-168.325,23.424-176.883,23.311
	c12.407-59.371,52.418-108.716,105.946-133.963C179.701,90.059,213.893,137.439,245.594,193.794z M288.66,287.75
	c0.42-0.146,0.84-0.282,1.261-0.426c26.862,69.803,37.971,128.306,40.818,145.093c-22.974,9.784-48.233,15.205-74.738,15.205
	c-44.232,0-85.001-15.092-117.441-40.39C142.003,400.193,180.742,325.355,288.66,287.75z M426,0H86C38.7,0,0,38.7,0,86v340
	c0,47.3,38.7,86,86,86h340c47.3,0,86-38.7,86-86V86C512,38.7,473.3,0,426,0z M256.001,480C132.486,480,32,379.516,32,256
	C32,132.486,132.486,32,256.001,32C379.517,32,480,132.486,480,256C480,379.516,379.517,480,256.001,480z M325.732,278.482
	c59.958-9.597,112.633,6.115,119.18,8.18c-8.53,53.236-39.086,99.214-82.01,128.236C360.941,403.26,350.758,347.251,325.732,278.482
	z M297.266,210.738c70.742-28.882,102.805-69.982,106.837-75.44c26.646,32.558,42.783,74.026,43.206,119.186
	c-6.309-1.334-69.564-14.164-133.229-6.158c-1.341-3.276-2.713-6.567-4.121-9.875C305.986,229.121,301.718,219.852,297.266,210.738z
	"/>
</svg>
