<?xml version="1.0" encoding="utf-8"?>
<!-- Generator: Adobe Illustrator 16.0.4, SVG Export Plug-In . SVG Version: 6.00 Build 0)  -->
<!DOCTYPE svg PUBLIC "-//W3C//DTD SVG 1.1//EN" "http://www.w3.org/Graphics/SVG/1.1/DTD/svg11.dtd">
<svg version="1.1" id="Capa_1" xmlns="http://www.w3.org/2000/svg" xmlns:xlink="http://www.w3.org/1999/xlink" x="0px" y="0px"
	 width="512px" height="512px" viewBox="0 0 512 512" enable-background="new 0 0 512 512" xml:space="preserve">
<path d="M256,0C114.615,0,0,114.615,0,256s114.615,256,256,256s256-114.615,256-256S397.385,0,256,0z M160,128
	c17.673,0,32,14.327,32,32s-14.327,32-32,32s-32-14.327-32-32S142.327,128,160,128z M384,320h-32v48c0,26.51-21.49,48-48,48
	s-48-21.49-48-48v-48H128v-32h256V320z M352,192c-17.673,0-32-14.327-32-32s14.327-32,32-32s32,14.327,32,32S369.673,192,352,192z"
	/>
</svg>
