<?xml version="1.0" encoding="utf-8"?>
<!-- Generator: Adobe Illustrator 16.0.4, SVG Export Plug-In . SVG Version: 6.00 Build 0)  -->
<!DOCTYPE svg PUBLIC "-//W3C//DTD SVG 1.1//EN" "http://www.w3.org/Graphics/SVG/1.1/DTD/svg11.dtd">
<svg version="1.1" id="Capa_1" xmlns="http://www.w3.org/2000/svg" xmlns:xlink="http://www.w3.org/1999/xlink" x="0px" y="0px"
	 width="512px" height="512px" viewBox="0 0 512 512" enable-background="new 0 0 512 512" xml:space="preserve">
<path d="M448,224h8c13.2,0,24-10.8,24-24v-80c0-13.2-10.8-24-24-24h-8V0h-64v96h-8c-13.2,0-24,10.8-24,24v80c0,13.2,10.8,24,24,24h8
	v288h64V224z M384,128h64v64h-64V128z M296,416c13.2,0,24-10.8,24-24v-80c0-13.2-10.8-24-24-24h-8V0h-64v288h-8
	c-13.2,0-24,10.8-24,24v80c0,13.2,10.8,24,24,24h8v96h64v-96H296z M224,320h64v64h-64V320z M136,224c13.2,0,24-10.8,24-24v-80
	c0-13.2-10.8-24-24-24h-8V0H64v96h-8c-13.2,0-24,10.8-24,24v80c0,13.2,10.8,24,24,24h8v288h64V224H136z M64,128h64v64H64V128z"/>
</svg>
