<?xml version="1.0" encoding="utf-8"?>
<!-- Generator: Adobe Illustrator 16.0.4, SVG Export Plug-In . SVG Version: 6.00 Build 0)  -->
<!DOCTYPE svg PUBLIC "-//W3C//DTD SVG 1.1//EN" "http://www.w3.org/Graphics/SVG/1.1/DTD/svg11.dtd">
<svg version="1.1" id="Capa_1" xmlns="http://www.w3.org/2000/svg" xmlns:xlink="http://www.w3.org/1999/xlink" x="0px" y="0px"
	 width="512px" height="512px" viewBox="0 0 512 512" enable-background="new 0 0 512 512" xml:space="preserve">
<path d="M256,160C151.316,160,58.378,210.278,0,288c58.378,77.723,151.316,128,256,128c104.684,0,197.622-50.277,256-128
	C453.622,210.278,360.684,160,256,160z M224,224c17.673,0,32,14.327,32,32s-14.327,32-32,32s-32-14.327-32-32S206.327,224,224,224z
	 M386.808,352.648c-19.823,10.129-40.825,17.931-62.423,23.188C302.141,381.254,279.134,384,256,384
	c-23.133,0-46.141-2.746-68.384-8.162c-21.597-5.259-42.599-13.061-62.423-23.188c-31.51-16.102-60.111-38.205-83.82-64.649
	c23.709-26.444,52.31-48.55,83.82-64.649c16.168-8.261,33.121-14.973,50.541-20.02C165.79,218.453,160,236.549,160,256
	c0,53.02,42.981,96,96,96c53.019,0,96-42.98,96-96c0-19.451-5.791-37.547-15.733-52.67c17.419,5.048,34.372,11.76,50.541,20.021
	c31.512,16.099,60.109,38.204,83.819,64.649C446.917,314.443,418.318,336.55,386.808,352.648z M430.459,121.861
	C376.099,94.084,317.403,80,256,80c-61.403,0-120.099,14.084-174.459,41.861C52.155,136.877,24.675,155.813,0,177.899v54.603
	c27.669-29.283,60.347-53.877,96.097-72.145C145.907,134.905,199.706,122,256,122s110.093,12.905,159.902,38.358
	c35.751,18.268,68.429,42.862,96.098,72.145V177.9C487.325,155.813,459.846,136.877,430.459,121.861z"/>
</svg>
