<?xml version="1.0" encoding="utf-8"?>
<!-- Generator: Adobe Illustrator 16.0.4, SVG Export Plug-In . SVG Version: 6.00 Build 0)  -->
<!DOCTYPE svg PUBLIC "-//W3C//DTD SVG 1.1//EN" "http://www.w3.org/Graphics/SVG/1.1/DTD/svg11.dtd">
<svg version="1.1" id="Capa_1" xmlns="http://www.w3.org/2000/svg" xmlns:xlink="http://www.w3.org/1999/xlink" x="0px" y="0px"
	 width="512px" height="512px" viewBox="0 0 512 512" enable-background="new 0 0 512 512" xml:space="preserve">
<path d="M256,0C114.615,0,0,35.817,0,80v48l192,192v160c0,17.673,28.653,32,64,32c35.346,0,64-14.327,64-32V320l192-192V80
	C512,35.817,397.385,0,256,0z M47.192,69.412c11.972-6.829,28.791-13.31,48.639-18.744C139.803,38.63,196.685,32,256,32
	c59.314,0,116.197,6.63,160.169,18.668c19.848,5.434,36.667,11.915,48.64,18.744c7.896,4.503,12.162,8.312,14.148,10.588
	c-1.986,2.276-6.253,6.084-14.148,10.588c-11.973,6.829-28.792,13.31-48.64,18.744C372.198,121.37,315.315,128,256,128
	c-59.315,0-116.197-6.63-160.169-18.668c-19.848-5.434-36.667-11.915-48.639-18.744C39.296,86.084,35.03,82.276,33.043,80
	C35.03,77.724,39.296,73.916,47.192,69.412z"/>
</svg>
