<?xml version="1.0" encoding="utf-8"?>
<!-- Generator: Adobe Illustrator 16.0.4, SVG Export Plug-In . SVG Version: 6.00 Build 0)  -->
<!DOCTYPE svg PUBLIC "-//W3C//DTD SVG 1.1//EN" "http://www.w3.org/Graphics/SVG/1.1/DTD/svg11.dtd">
<svg version="1.1" id="Capa_1" xmlns="http://www.w3.org/2000/svg" xmlns:xlink="http://www.w3.org/1999/xlink" x="0px" y="0px"
	 width="512px" height="512px" viewBox="0 0 512 512" enable-background="new 0 0 512 512" xml:space="preserve">
<path d="M256.5,384c-66.156,0-130.837-9.686-193.05-28.85l10.124-30.371C132.526,342.859,193.812,352,256.5,352
	c8.172,0,16.318-0.164,24.441-0.475C283.055,312.746,288,288,288,288s-32,0-96,0c0-87.505,29.909-165.027,62.465-223.5H0v383
	h283.088c-2.336-22.842-3.152-44.43-3.076-63.92C272.195,383.854,264.357,384,256.5,384z M96,128h32v64H96V128z M512,64.5H298.436
	c-0.975,1.598-1.947,3.207-2.92,4.843c-19.209,32.286-34.469,65.379-45.358,98.36c-9.103,27.566-15.151,55.116-18.086,82.297H334.5
	l-9.229,45.417c-0.157,0.808-4.086,21.422-6.101,53.472c40.932-4.063,81.111-12.104,120.257-24.107l10.124,30.371
	c-42.783,13.178-86.731,21.873-131.525,26.021c-0.019,2.188-0.028,4.396-0.021,6.64c0.062,20.315,1.173,40.285,3.301,59.688H512
	V64.5z M416,192h-32v-64h32V192z M293.632,512h39.084c-2.729-10.907-5.094-22.096-7.068-33.543
	c-1.747-10.126-3.191-20.46-4.344-30.957h-38.216C285.204,468.189,288.562,489.901,293.632,512z M344.224,0h-48.198
	c-12.875,17.435-27.465,39.185-41.56,64.5h43.97C315.272,36.844,332.017,14.799,344.224,0z"/>
</svg>
