<?xml version="1.0" encoding="utf-8"?>
<!-- Generator: Adobe Illustrator 16.0.4, SVG Export Plug-In . SVG Version: 6.00 Build 0)  -->
<!DOCTYPE svg PUBLIC "-//W3C//DTD SVG 1.1//EN" "http://www.w3.org/Graphics/SVG/1.1/DTD/svg11.dtd">
<svg version="1.1" id="Capa_1" xmlns="http://www.w3.org/2000/svg" xmlns:xlink="http://www.w3.org/1999/xlink" x="0px" y="0px"
	 width="512px" height="512px" viewBox="0 0 512 512" enable-background="new 0 0 512 512" xml:space="preserve">
<path d="M183.781,0C62.102,0,0,70.081,0,200.928l0,0v91.402v183.115l119.195-119.314V216.683c0-54.208,14.365-88.703,62.559-96.447
	l0,0c16.836-3.292,51.875-2.139,74.153-2.139l0,0v82.798c0,0.755,0.104,2.103,0.297,2.793l0,0c0.935,3.352,3.965,5.808,7.558,5.815
	l0,0c2.031,0.004,3.934-1.052,5.896-2.985l0,0L476.218,0.031L337.562,0H183.781z M392.805,155.873v139.445
	c0,54.207-14.368,88.707-62.558,96.447l0,0c-16.836,3.291-51.878,2.139-74.156,2.139l0,0v-82.797c0-0.75-0.103-2.103-0.297-2.791
	l0,0c-0.932-3.356-3.961-5.812-7.556-5.815l0,0c-2.032-0.004-3.933,1.056-5.895,2.983l0,0L35.781,511.967L174.434,512h153.784
	C449.895,512,512,441.916,512,311.074l0,0v-91.407V36.56L392.805,155.873z"/>
</svg>
