<?xml version="1.0" encoding="utf-8"?>
<!-- Generator: Adobe Illustrator 16.0.4, SVG Export Plug-In . SVG Version: 6.00 Build 0)  -->
<!DOCTYPE svg PUBLIC "-//W3C//DTD SVG 1.1//EN" "http://www.w3.org/Graphics/SVG/1.1/DTD/svg11.dtd">
<svg version="1.1" id="Capa_1" xmlns="http://www.w3.org/2000/svg" xmlns:xlink="http://www.w3.org/1999/xlink" x="0px" y="0px"
	 width="512px" height="512px" viewBox="0 0 512 512" enable-background="new 0 0 512 512" xml:space="preserve">
<path d="M399.798,8.104C354.535,8.104,325.488,0,278.874,0C128.232,0,57.978,85.792,57.978,172.936
	c0,51.339,24.32,68.229,72.282,68.229c-3.379-7.432-9.457-15.54-9.457-52.017c0-102.005,38.503-131.729,87.818-133.755
	c0,0-40.459,396.687-157.889,444.271V512h84.359h73.938l54.013-256h98.922L384,192H276.546l25.972-123.095
	c29.724,6.078,58.771,12.158,83.767,12.158c31.074,0,59.447-9.457,74.983-81.063C442.355,6.08,422.087,8.104,399.798,8.104z"/>
</svg>
