<?xml version="1.0" encoding="utf-8"?>
<!-- Generator: Adobe Illustrator 16.0.4, SVG Export Plug-In . SVG Version: 6.00 Build 0)  -->
<!DOCTYPE svg PUBLIC "-//W3C//DTD SVG 1.1//EN" "http://www.w3.org/Graphics/SVG/1.1/DTD/svg11.dtd">
<svg version="1.1" id="Capa_1" xmlns="http://www.w3.org/2000/svg" xmlns:xlink="http://www.w3.org/1999/xlink" x="0px" y="0px"
	 width="512px" height="512px" viewBox="0 0 512 512" enable-background="new 0 0 512 512" xml:space="preserve">
<path d="M511.845,0h-56.539L331.505,169.948l-49.022-49.025c-6.902-6.904-16.084-10.706-25.853-10.706
	c-9.766,0-18.948,3.801-25.858,10.706l-22.257,22.258c-1.249-1.702-2.545-3.382-3.939-5.012
	c-30.324-35.439-83.635-39.604-119.074-9.271c-35.443,30.319-39.593,83.625-9.268,119.07c6.955,8.134,15.131,14.599,24.015,19.397
	c0.18,9.119,3.729,18.188,10.669,25.132l119.852,119.84c6.907,6.91,16.091,10.717,25.86,10.717c9.771,0,18.953-3.808,25.853-10.715
	l119.85-119.841c6.91-6.908,10.717-16.092,10.717-25.859c0-9.769-3.807-18.954-10.715-25.859l-13.789-13.79l123.301-104.045
	L511.845,0L511.845,0z M247.739,137.896c2.375-2.373,5.532-3.68,8.891-3.68c3.356,0,6.513,1.306,8.882,3.676l51.688,51.691
	l-56.181,77.121c-5.546,6.188-10.435,2.933-12.362,0.633c-0.662-0.778-13.843-18.037-30.887-40.391
	c8.462-19.37,9.378-41.408,2.428-61.509L247.739,137.896z M385.364,257.752c2.375,2.374,3.684,5.529,3.684,8.887
	c0,3.356-1.309,6.512-3.686,8.887L265.507,395.373c-2.37,2.373-5.522,3.681-8.877,3.681c-3.356,0-6.512-1.309-8.888-3.686
	l-118.63-118.619c13.809,1.856,28.036,0.313,41.323-4.74l79.585,64.009c0,0,4.353,4.041,9.158,0.137l110.959-93.63L385.364,257.752z
	"/>
</svg>
