<?xml version="1.0" encoding="utf-8"?>
<!-- Generator: Adobe Illustrator 16.0.4, SVG Export Plug-In . SVG Version: 6.00 Build 0)  -->
<!DOCTYPE svg PUBLIC "-//W3C//DTD SVG 1.1//EN" "http://www.w3.org/Graphics/SVG/1.1/DTD/svg11.dtd">
<svg version="1.1" id="Capa_1" xmlns="http://www.w3.org/2000/svg" xmlns:xlink="http://www.w3.org/1999/xlink" x="0px" y="0px"
	 width="512px" height="512px" viewBox="0 0 512 512" enable-background="new 0 0 512 512" xml:space="preserve">
<path d="M426.671,0H85.343C38.406,0,0,38.405,0,85.345v341.311C0,473.625,38.406,512,85.343,512h341.328
	C473.609,512,512,473.625,512,426.655V85.345C512,38.405,473.609,0,426.671,0z M469.967,469.971
	C458.341,481.597,442.965,488,426.671,488H85.343c-16.294,0-31.674-6.403-43.304-18.031C30.406,458.339,24,442.957,24,426.656
	V85.345c0-16.292,6.407-31.671,18.041-43.305C53.674,30.407,69.053,24,85.343,24h341.328c3.549,0,7.05,0.322,10.483,0.918
	l-105.649,145.03l-49.022-49.025c-6.902-6.904-16.084-10.706-25.853-10.706c-9.766,0-18.948,3.801-25.858,10.706l-22.257,22.258
	c-1.249-1.702-2.545-3.382-3.939-5.012c-30.324-35.439-83.635-39.604-119.074-9.271c-35.443,30.319-39.593,83.625-9.268,119.07
	c6.955,8.134,15.131,14.599,24.015,19.397c0.18,9.119,3.729,18.188,10.669,25.132l119.852,119.84
	c6.907,6.91,16.091,10.717,25.86,10.717c9.771,0,18.953-3.808,25.853-10.715l119.85-119.841c6.91-6.908,10.717-16.092,10.717-25.859
	c0-9.769-3.807-18.954-10.715-25.859l-13.789-13.79L488,139.519v287.137C488,442.959,481.596,458.342,469.967,469.971z
	 M220.198,165.438l27.541-27.542c2.375-2.373,5.532-3.68,8.891-3.68c3.356,0,6.513,1.306,8.882,3.676l51.688,51.691l-56.181,77.121
	c-5.546,6.188-10.435,2.933-12.362,0.633c-0.662-0.778-13.843-18.037-30.887-40.391
	C226.232,207.577,227.148,185.539,220.198,165.438z M250.02,336.018c0,0,4.353,4.041,9.158,0.137l110.959-93.63l15.229,15.229
	c2.375,2.374,3.684,5.529,3.684,8.886c0,3.357-1.309,6.512-3.686,8.889L265.507,395.373c-2.37,2.373-5.522,3.681-8.877,3.681
	c-3.356,0-6.512-1.309-8.888-3.686l-118.63-118.619c13.809,1.856,28.036,0.313,41.323-4.74L250.02,336.018z"/>
</svg>
