<?xml version="1.0" encoding="utf-8"?>
<!-- Generator: Adobe Illustrator 16.0.4, SVG Export Plug-In . SVG Version: 6.00 Build 0)  -->
<!DOCTYPE svg PUBLIC "-//W3C//DTD SVG 1.1//EN" "http://www.w3.org/Graphics/SVG/1.1/DTD/svg11.dtd">
<svg version="1.1" id="Capa_1" xmlns="http://www.w3.org/2000/svg" xmlns:xlink="http://www.w3.org/1999/xlink" x="0px" y="0px"
	 width="512px" height="512px" viewBox="0 0 512 512" enable-background="new 0 0 512 512" xml:space="preserve">
<path d="M256,32c141.385,0,256,114.615,256,256c0,96.396-53.288,180.333-132.004,224H132.004C53.288,468.333,0,384.396,0,288
	C0,146.615,114.615,32,256,32z M400.957,432.957C439.676,394.236,461,342.758,461,288h-45v-32h42.519
	c-3.507-22.499-10.694-44.073-21.281-64H384v-32h32.142c-4.719-5.881-9.775-11.548-15.185-16.957
	c-23.111-23.11-50.77-40.019-80.957-49.899V128h-32V85.48C277.509,83.846,266.82,83,256,83c-10.82,0-21.509,0.845-32,2.48V128h-32
	V93.144c-30.186,9.88-57.846,26.788-80.957,49.899c-5.409,5.409-10.466,11.076-15.185,16.957H128v32H74.762
	c-10.587,19.927-17.776,41.501-21.282,64H96v32H51c0,54.758,21.324,106.236,60.043,144.957c5.355,5.355,10.962,10.364,16.78,15.043
	H224l18.286-256h27.428L288,448h96.177C389.995,443.321,395.603,438.311,400.957,432.957z"/>
</svg>
