<?xml version="1.0" encoding="utf-8"?>
<!-- Generator: Adobe Illustrator 16.0.4, SVG Export Plug-In . SVG Version: 6.00 Build 0)  -->
<!DOCTYPE svg PUBLIC "-//W3C//DTD SVG 1.1//EN" "http://www.w3.org/Graphics/SVG/1.1/DTD/svg11.dtd">
<svg version="1.1" id="Capa_1" xmlns="http://www.w3.org/2000/svg" xmlns:xlink="http://www.w3.org/1999/xlink" x="0px" y="0px"
	 width="512px" height="512px" viewBox="0 0 512 512" enable-background="new 0 0 512 512" xml:space="preserve">
<path d="M131.736,379.684c0,13.526,11.447,20.291,34.334,20.291c20.032,0,30.044-7.021,30.044-21.066
	c0-13.27-10.923-19.898-32.772-19.898C142.269,359.008,131.736,365.898,131.736,379.684z M426.674,0H85.344
	C38.406,0,0,38.405,0,85.344v341.313C0,473.625,38.406,512,85.344,512h341.33C473.608,512,512,473.625,512,426.656V85.344
	C512,38.405,473.609,0,426.674,0z M237.864,204.494c-3.642,1.302-8.844,2.729-15.606,4.293c2.08,5.983,3.123,11.576,3.123,16.777
	c0,16.646-5.009,31.149-15.022,43.506c-10.015,12.354-22.956,19.703-38.823,22.043c-10.402,1.562-15.604,7.156-15.604,16.779
	c0,3.381,1.689,6.765,5.072,10.145c4.422,4.943,10.924,8.066,19.509,9.367c37.195,5.721,55.793,21.197,55.793,46.427
	c0,40.321-24.062,60.48-72.181,60.48c-19.771,0-36.028-3.513-48.772-10.534c-16.129-8.845-24.188-22.761-24.188-41.75
	c0-21.853,12.096-36.809,36.282-44.869v-0.78c-8.842-5.462-13.263-13.785-13.263-24.972c0-14.566,4.162-23.672,12.484-27.311v-0.781
	c-8.323-2.862-15.737-9.366-22.24-19.513c-7.282-10.926-10.925-22.63-10.925-35.115c0-18.729,6.635-34.335,19.896-46.82
	c12.748-11.707,27.964-17.558,45.653-17.558c12.747,0,24.579,3.119,35.505,9.361c12.485,0,26.921-3.12,43.313-9.361L237.864,204.494
	L237.864,204.494z M301.089,339.497h-44.093c0.521-5.201,0.779-14.042,0.779-26.532V191.619c0-12.227-0.262-20.682-0.779-25.359
	h44.093c-0.521,4.942-0.78,13.135-0.78,24.582v119.782C300.309,323.891,300.568,333.516,301.089,339.497z M298.159,127.241
	c-5.332,5.722-11.642,8.581-18.923,8.581c-7.543,0-13.979-2.859-19.313-8.581c-5.333-5.726-8.001-12.486-8.001-20.289
	c0-8.067,2.668-14.956,8.001-20.683c5.333-5.721,11.771-8.584,19.313-8.584c7.281,0,13.592,2.863,18.923,8.584
	c5.333,5.728,7.999,12.615,7.999,20.683C306.158,114.755,303.492,121.516,298.159,127.241z M420.845,334.424
	c-9.627,5.205-21.203,7.803-34.729,7.803c-18.985,0-32.124-6.76-39.405-20.287c-5.465-10.145-8.193-26.14-8.193-47.989v-69.842h0.39
	v-0.781l-5.854-0.391c-3.382,0-7.806,0.391-13.267,1.171V166.26h19.117v-15.216c0-7.285-0.39-13.14-1.17-17.56h45.259
	c-0.775,4.94-1.168,10.533-1.168,16.776v15.999h33.942v37.846c-1.299,0-3.705-0.129-7.218-0.389
	c-3.512-0.261-6.828-0.393-9.949-0.393h-16.776v72.572c0,17.433,5.725,26.146,17.167,26.146c8.062,0,15.348-2.209,21.854-6.632
	V334.424L420.845,334.424z M160.608,200.203c-16.388,0-24.582,9.627-24.582,28.873c0,17.951,8.194,26.924,24.582,26.924
	c15.868,0,23.801-9.104,23.801-27.313c0-7.545-1.82-14.047-5.461-19.511C174.525,203.195,168.411,200.203,160.608,200.203z"/>
</svg>
