<?xml version="1.0" encoding="utf-8"?>
<!-- Generator: Adobe Illustrator 16.0.4, SVG Export Plug-In . SVG Version: 6.00 Build 0)  -->
<!DOCTYPE svg PUBLIC "-//W3C//DTD SVG 1.1//EN" "http://www.w3.org/Graphics/SVG/1.1/DTD/svg11.dtd">
<svg version="1.1" id="Capa_1" xmlns="http://www.w3.org/2000/svg" xmlns:xlink="http://www.w3.org/1999/xlink" x="0px" y="0px"
	 width="512px" height="512px" viewBox="0 0 512 512" enable-background="new 0 0 512 512" xml:space="preserve">
<path d="M279.533,32c0,0-100.478,0-133.97,0c-60.06,0-116.585,45.503-116.585,98.211c0,53.863,40.941,97.333,102.044,97.333
	c4.249,0,8.378-0.085,12.421-0.376c-3.965,7.593-6.801,16.144-6.801,25.021c0,14.969,8.052,27.105,18.234,37.012
	c-7.693,0-15.121,0.224-23.226,0.224C57.259,289.424,0,336.805,0,385.936c0,48.389,62.771,78.656,137.167,78.656
	c84.812,0,131.653-48.122,131.653-96.514c0-38.801-11.448-62.036-46.843-87.067c-12.108-8.571-35.265-29.418-35.265-41.672
	c0-14.36,4.098-21.434,25.714-38.323c22.156-17.312,37.836-41.651,37.836-69.958c0-33.703-15.01-66.549-43.186-77.386h42.477
	L279.533,32z M232.74,359.729c1.063,4.486,1.642,9.104,1.642,13.814c0,39.1-25.196,69.655-97.487,69.655
	c-51.421,0-88.558-32.552-88.558-71.65c0-38.321,46.063-70.222,97.482-69.666c12,0.127,23.184,2.058,33.335,5.345
	C207.067,326.641,227.092,337.607,232.74,359.729z M150.409,213.888c-34.519-1.032-67.318-38.613-73.276-83.93
	c-5.958-45.333,17.185-80.021,51.694-78.995c34.505,1.037,67.319,37.407,73.279,82.729
	C208.059,179.022,184.911,214.921,150.409,213.888z M416,128V32h-32v96h-96v32h96v96h32v-96h96v-32H416z"/>
</svg>
