<?xml version="1.0" encoding="utf-8"?>
<!-- Generator: Adobe Illustrator 16.0.4, SVG Export Plug-In . SVG Version: 6.00 Build 0)  -->
<!DOCTYPE svg PUBLIC "-//W3C//DTD SVG 1.1//EN" "http://www.w3.org/Graphics/SVG/1.1/DTD/svg11.dtd">
<svg version="1.1" id="Capa_1" xmlns="http://www.w3.org/2000/svg" xmlns:xlink="http://www.w3.org/1999/xlink" x="0px" y="0px"
	 width="512px" height="512px" viewBox="0 0 512 512" enable-background="new 0 0 512 512" xml:space="preserve">
<path d="M256,0C114.615,0,0,114.615,0,256s114.613,256,256,256c141.385,0,256-114.615,256-256S397.385,0,256,0z M352,118
	c31.981,0,58,26.019,58,58c0,3.189-0.273,6.438-0.814,9.656c-0.809,4.816-4.979,8.344-9.861,8.344s-9.055-3.528-9.861-8.345
	C386.383,167.313,370.628,159,352,159s-34.383,8.313-37.462,26.655c-0.808,4.816-4.979,8.345-9.861,8.345c-0.001,0,0,0-0.001,0
	c-4.883,0-9.053-3.528-9.861-8.344C294.273,182.438,294,179.189,294,176C294,144.019,320.019,118,352,118z M160,118
	c31.981,0,58,26.019,58,58c0,3.189-0.274,6.438-0.814,9.656c-0.809,4.816-4.978,8.344-9.862,8.344c-4.884,0-9.053-3.528-9.861-8.345
	C194.383,167.313,178.628,159,160,159s-34.383,8.313-37.462,26.655c-0.808,4.816-4.978,8.345-9.861,8.345l0,0
	c-4.883,0-9.053-3.528-9.862-8.344C102.274,182.438,102,179.189,102,176C102,144.019,128.019,118,160,118z M96,288h96v123.923
	C136.953,397.62,96,347.361,96,288z M224,416V288h64v128H224z M320,411.923V288h96C416,347.361,375.048,397.62,320,411.923z"/>
</svg>
