<?xml version="1.0" encoding="utf-8"?>
<!-- Generator: Adobe Illustrator 16.0.4, SVG Export Plug-In . SVG Version: 6.00 Build 0)  -->
<!DOCTYPE svg PUBLIC "-//W3C//DTD SVG 1.1//EN" "http://www.w3.org/Graphics/SVG/1.1/DTD/svg11.dtd">
<svg version="1.1" id="Capa_1" xmlns="http://www.w3.org/2000/svg" xmlns:xlink="http://www.w3.org/1999/xlink" x="0px" y="0px"
	 width="512px" height="512px" viewBox="0 0 512 512" enable-background="new 0 0 512 512" xml:space="preserve">
<path d="M504.998,414.488L354.226,263.716c-9.334-9.334-24.606-9.334-33.94,0l-11.313,11.313l-92-92L368,32H208l-71.029,71.029
	L129.941,96H96v33.941l7.029,7.029L0,240l80,80l103.029-103.029l92,92l-11.313,11.313c-9.334,9.334-9.334,24.606,0,33.94
	l150.772,150.772c9.334,9.334,24.606,9.334,33.94,0l56.568-56.568C514.332,439.096,514.332,423.822,504.998,414.488z"/>
</svg>
