<?xml version="1.0" encoding="utf-8"?>
<!-- Generator: Adobe Illustrator 16.0.4, SVG Export Plug-In . SVG Version: 6.00 Build 0)  -->
<!DOCTYPE svg PUBLIC "-//W3C//DTD SVG 1.1//EN" "http://www.w3.org/Graphics/SVG/1.1/DTD/svg11.dtd">
<svg version="1.1" id="Capa_1" xmlns="http://www.w3.org/2000/svg" xmlns:xlink="http://www.w3.org/1999/xlink" x="0px" y="0px"
	 width="512px" height="512px" viewBox="0 0 512 512" enable-background="new 0 0 512 512" xml:space="preserve">
<path d="M448,192H274.096C285.324,151.545,291,141.704,291,99c0-36.944-30.057-67-67-67c-36.943,0-67,30.056-67,67
	c0,51.986-19.361,75.975-57.545,102.855c-1.134,0.798-2.289,1.581-3.455,2.355V160H0v320h96v-28.502
	c31.831,2.151,40.56,11.096,51.223,22.042c8.226,8.445,18.464,18.956,37.015,26.638C203.715,508.243,229.061,512,264,512h24h8.49
	c30.969,0,56.163-25.634,56.163-57.143c0-5.235-0.712-10.438-2.096-15.45c9.855-10.498,15.482-24.501,15.482-39.407
	c0-5.234-0.712-10.438-2.095-15.449c9.854-10.499,15.481-24.503,15.481-39.408c0-9.018-2.071-17.55-5.744-25.143H448
	c35.347,0,64-28.652,64-64C512,220.654,483.347,192,448,192z M48,448c-8.836,0-16-7.163-16-16s7.164-16,16-16s16,7.163,16,16
	S56.836,448,48,448z M445,288H320.266H317v32h3.266c13.323,0,24.163,11.279,24.163,25.143c0,8.686-4.233,16.646-11.327,21.293
	l-12.394,8.123l7.149,12.979c2.083,3.781,3.184,8.091,3.184,12.463c0,8.685-4.234,16.645-11.326,21.291l-12.395,8.122l7.148,12.979
	c2.083,3.781,3.185,8.092,3.185,12.465c0,13.862-10.841,25.143-24.163,25.143H285h-24c-63.281,0-76.044-19.103-89.556-32.975
	c-13.794-14.16-29.245-29.992-75.444-33.364V246.474c7.878-4.132,15.35-8.632,22.329-13.545C166.525,199,192,163.156,192,99
	c0-15.991,15.01-29,31-29s30,13.009,30,29c0,42.83-6.207,52.706-18.48,93c-3.062,11.371-5.961,22.635-7.938,31.667L445,224
	c17.645,0,32,14.355,32,32C477,273.645,462.645,288,445,288z"/>
</svg>
