<?xml version="1.0" encoding="utf-8"?>
<!-- Generator: Adobe Illustrator 16.0.4, SVG Export Plug-In . SVG Version: 6.00 Build 0)  -->
<!DOCTYPE svg PUBLIC "-//W3C//DTD SVG 1.1//EN" "http://www.w3.org/Graphics/SVG/1.1/DTD/svg11.dtd">
<svg version="1.1" id="Capa_1" xmlns="http://www.w3.org/2000/svg" xmlns:xlink="http://www.w3.org/1999/xlink" x="0px" y="0px"
	 width="512px" height="512px" viewBox="0 0 512 512" enable-background="new 0 0 512 512" xml:space="preserve">
<path d="M256,0C114.615,0,0,114.615,0,256s114.615,256,256,256s256-114.615,256-256S397.385,0,256,0z M352,128
	c17.674,0,32,21.49,32,48s-14.326,48-32,48s-32-21.49-32-48S334.326,128,352,128z M160,128c17.673,0,32,21.49,32,48
	s-14.327,48-32,48s-32-21.49-32-48S142.327,128,160,128z M256,448c-83.434,0-152.711-69.936-160-159.152
	c46.885,27.058,102.025,42.532,160,42.532c57.975,0,113.115-15.403,160-42.46C408.713,378.139,339.436,448,256,448z"/>
</svg>
