<?xml version="1.0" encoding="utf-8"?>
<!-- Generator: Adobe Illustrator 16.0.4, SVG Export Plug-In . SVG Version: 6.00 Build 0)  -->
<!DOCTYPE svg PUBLIC "-//W3C//DTD SVG 1.1//EN" "http://www.w3.org/Graphics/SVG/1.1/DTD/svg11.dtd">
<svg version="1.1" id="Capa_1" xmlns="http://www.w3.org/2000/svg" xmlns:xlink="http://www.w3.org/1999/xlink" x="0px" y="0px"
	 width="512px" height="512px" viewBox="0 0 512 512" enable-background="new 0 0 512 512" xml:space="preserve">
<path d="M512,179.078c0,43.181-18.609,82.015-48.245,108.922H464L304,448c-16,16-32,32-48,32s-32-16-48-32L48,288h0.245
	C18.609,261.093,0,222.259,0,179.078C0,97.849,65.849,32,147.078,32c27.725,0,53.651,7.682,75.786,21.018L176,128l112,64l-64,160
	l176-192L288,96l39.446-59.17c11.966-3.144,24.522-4.83,37.476-4.83C446.15,32,512,97.849,512,179.078z"/>
</svg>
