<?xml version="1.0" encoding="utf-8"?>
<!-- Generator: Adobe Illustrator 16.0.4, SVG Export Plug-In . SVG Version: 6.00 Build 0)  -->
<!DOCTYPE svg PUBLIC "-//W3C//DTD SVG 1.1//EN" "http://www.w3.org/Graphics/SVG/1.1/DTD/svg11.dtd">
<svg version="1.1" id="Capa_1" xmlns="http://www.w3.org/2000/svg" xmlns:xlink="http://www.w3.org/1999/xlink" x="0px" y="0px"
	 width="512px" height="512px" viewBox="0 0 512 512" enable-background="new 0 0 512 512" xml:space="preserve">
<path d="M288,32c123.712,0,224,100.288,224,224S411.712,480,288,480v-48c47.012,0,91.209-18.307,124.451-51.549S464,303.012,464,256
	c0-47.011-18.307-91.209-51.549-124.451C379.209,98.307,335.012,80,288,80c-47.011,0-91.209,18.307-124.451,51.549
	c-25.57,25.569-42.291,57.623-48.653,92.451H208L96,352L-16,224h82.285C81.815,115.449,175.154,32,288,32z M384,224v64H256V128h64
	v96H384z"/>
</svg>
