<?xml version="1.0" encoding="utf-8"?>
<!-- Generator: Adobe Illustrator 16.0.4, SVG Export Plug-In . SVG Version: 6.00 Build 0)  -->
<!DOCTYPE svg PUBLIC "-//W3C//DTD SVG 1.1//EN" "http://www.w3.org/Graphics/SVG/1.1/DTD/svg11.dtd">
<svg version="1.1" id="Capa_1" xmlns="http://www.w3.org/2000/svg" xmlns:xlink="http://www.w3.org/1999/xlink" x="0px" y="0px"
	 width="512px" height="512px" viewBox="0 0 512 512" enable-background="new 0 0 512 512" xml:space="preserve">
<path d="M192,96h64v32h-64V96z M288,96h64v32h-64V96z M448,96v128h-96v-32h64v-64h-32V96H448z M160,192h64v32h-64V192z M256,192h64
	v32h-64V192z M96,128v64h32v32H64V96h96v32H96z M192,288h64v32h-64V288z M288,288h64v32h-64V288z M448,288v128h-96v-32h64v-64h-32
	v-32H448z M160,384h64v32h-64V384z M256,384h64v32h-64V384z M96,320v64h32v32H64V288h96v32H96z M480,32H32v448h448V32z M512,0L512,0
	v512H0V0H512z"/>
</svg>
