<?xml version="1.0" encoding="utf-8"?>
<!-- Generator: Adobe Illustrator 16.0.4, SVG Export Plug-In . SVG Version: 6.00 Build 0)  -->
<!DOCTYPE svg PUBLIC "-//W3C//DTD SVG 1.1//EN" "http://www.w3.org/Graphics/SVG/1.1/DTD/svg11.dtd">
<svg version="1.1" id="Capa_1" xmlns="http://www.w3.org/2000/svg" xmlns:xlink="http://www.w3.org/1999/xlink" x="0px" y="0px"
	 width="512px" height="512px" viewBox="0 0 512 512" enable-background="new 0 0 512 512" xml:space="preserve">
<path d="M133.002,138.339c16.416-16.422,43.001-16.422,59.402-0.016l3.913,3.934l50.552-50.578l-3.937-3.94
	c-28.812-28.85-69.257-38.939-106.21-30.261C131.425,24.887,103.178,0.016,69.135,0C31.31,0,0.658,30.721,0.65,68.579
	c0,32.668,22.795,60,53.331,66.915c-11.569,38.725-2.121,82.417,28.423,112.992l113.913,113.95l50.498-50.606L132.91,197.886
	C116.569,181.525,116.539,154.823,133.002,138.339z M511.356,68.579C511.364,30.698,480.697,0,442.864,0
	c-34.617,0-63.239,25.722-67.841,59.119c-38.537-11.332-81.893-1.748-112.32,28.704l-113.92,113.95l50.551,50.586l113.883-113.928
	c16.471-16.483,42.994-16.453,59.342-0.092c16.4,16.415,16.4,43.057-0.016,59.478l-3.896,3.918l50.505,50.624l3.929-3.964
	c30.229-30.283,39.839-73.378,28.806-111.819C485.461,132.159,511.356,103.394,511.356,68.579z M453.133,375.532
	c9.051-37.229-0.988-78.162-30.054-107.25L309.334,154.286l-50.551,50.561l113.76,114.006c16.47,16.498,16.432,43.047,0.092,59.424
	c-16.4,16.406-43.002,16.406-59.418-0.016l-3.883-3.895l-50.497,50.623l3.866,3.863c30.758,30.798,74.809,40.22,113.684,28.244
	C382.703,488.439,410.354,512,443.516,512C481.318,512,512,481.325,512,443.438C512,408.837,486.41,380.209,453.133,375.532z
	 M306.172,264.342L192.404,378.338c-16.355,16.385-43.017,16.414-59.472-0.062c-16.409-16.451-16.416-43.049-0.022-59.484
	l3.904-3.887l-50.543-50.562l-3.867,3.856c-29.38,29.401-39.28,70.917-29.725,108.491C22.48,383.818,0,411.006,0,443.438
	C-0.008,481.31,30.666,512,68.491,512c32.55-0.016,59.794-22.709,66.77-53.191c37.351,9.276,78.499-0.651,107.672-29.878
	l113.745-113.979L306.172,264.342z"/>
</svg>
