<?xml version="1.0" encoding="utf-8"?>
<!-- Generator: Adobe Illustrator 16.0.4, SVG Export Plug-In . SVG Version: 6.00 Build 0)  -->
<!DOCTYPE svg PUBLIC "-//W3C//DTD SVG 1.1//EN" "http://www.w3.org/Graphics/SVG/1.1/DTD/svg11.dtd">
<svg version="1.1" id="Capa_1" xmlns="http://www.w3.org/2000/svg" xmlns:xlink="http://www.w3.org/1999/xlink" x="0px" y="0px"
	 width="512px" height="512px" viewBox="0 0 512 512" enable-background="new 0 0 512 512" xml:space="preserve">
<path d="M426,0H86C38.7,0,0,38.7,0,86v340c0,47.3,38.7,86,86,86h340c47.3,0,86-38.7,86-86V86C512,38.7,473.3,0,426,0z
	 M421.834,403.833c-56.666,18.667-167.333,55-188,60.167s-42,13.834-54-20.833c0,0-102-301.333-111.333-328S50.077,72.424,71.167,64
	c48.688-19.447,99.333-44.25,108.667-16c8.351,25.273,97.333,304,97.333,304s104.666-36.834,133.333-44.834s38.501-13.334,46,26
	S478.5,385.166,421.834,403.833z"/>
</svg>
