<?xml version="1.0" encoding="utf-8"?>
<!-- Generator: Adobe Illustrator 16.0.4, SVG Export Plug-In . SVG Version: 6.00 Build 0)  -->
<!DOCTYPE svg PUBLIC "-//W3C//DTD SVG 1.1//EN" "http://www.w3.org/Graphics/SVG/1.1/DTD/svg11.dtd">
<svg version="1.1" id="Capa_1" xmlns="http://www.w3.org/2000/svg" xmlns:xlink="http://www.w3.org/1999/xlink" x="0px" y="0px"
	 width="512px" height="512px" viewBox="0 0 512 512" enable-background="new 0 0 512 512" xml:space="preserve">
<path d="M409.79,406.814c-53.333-0.209-81.749-26.291-101.496-72.252l-5.649-12.541l-48.685-111
	c-16.146-39.293-56.211-65.836-101.417-65.836c-61.167,0-110.792,49.626-110.792,110.836c0,61.208,49.624,110.833,110.792,110.833
	c42.669,0,79.771-24.125,98.291-59.5l19.688,45.416c-27.956,34.086-70.438,55.793-117.977,55.793C68.29,408.564,0,340.312,0,256.021
	c0-84.252,68.29-152.586,152.542-152.586c63.583,0,114.918,33.959,141,94.126c1.978,4.668,27.579,64.542,49.913,115.5
	c13.834,31.541,25.63,52.459,63.878,53.752c37.584,1.291,63.378-21.584,63.378-50.504c0-28.25-19.668-35.041-52.875-46.082
	c-59.691-19.667-90.503-39.417-90.503-86.75c0-46.168,31.416-76.959,82.457-76.959c33.248,0,57.253,14.793,73.88,44.293
	l-32.628,16.666c-12.295-17.207-25.854-24-43.086-24c-23.956,0-41.063,16.668-41.063,38.833c0,31.461,28.147,36.211,67.504,49.127
	c52.979,17.25,77.604,36.96,77.604,86.167C512.001,369.271,467.664,406.898,409.79,406.814z"/>
</svg>
