<?xml version="1.0" encoding="utf-8"?>
<!-- Generator: Adobe Illustrator 16.0.4, SVG Export Plug-In . SVG Version: 6.00 Build 0)  -->
<!DOCTYPE svg PUBLIC "-//W3C//DTD SVG 1.1//EN" "http://www.w3.org/Graphics/SVG/1.1/DTD/svg11.dtd">
<svg version="1.1" id="Capa_1" xmlns="http://www.w3.org/2000/svg" xmlns:xlink="http://www.w3.org/1999/xlink" x="0px" y="0px"
	 width="512px" height="512px" viewBox="0 0 512 512" enable-background="new 0 0 512 512" xml:space="preserve">
<path d="M437.011,74.99C390.685,28.662,326.693,0,256,0C146.256,0,52.655,69.064,16.251,166.094l59.938,22.477
	C103.491,115.798,173.692,64,256,64c53.02,0,101.01,21.5,135.753,56.247L320,192h192V0L437.011,74.99z M256,448
	c-53.02,0-101.013-21.496-135.756-56.244L192,320H0v192l74.997-74.997C121.32,483.334,185.306,512,256,512
	c109.745,0,203.346-69.064,239.75-166.094l-59.938-22.477C408.51,396.202,338.309,448,256,448z"/>
</svg>
