<?xml version="1.0" encoding="utf-8"?>
<!-- Generator: Adobe Illustrator 16.0.4, SVG Export Plug-In . SVG Version: 6.00 Build 0)  -->
<!DOCTYPE svg PUBLIC "-//W3C//DTD SVG 1.1//EN" "http://www.w3.org/Graphics/SVG/1.1/DTD/svg11.dtd">
<svg version="1.1" id="Capa_1" xmlns="http://www.w3.org/2000/svg" xmlns:xlink="http://www.w3.org/1999/xlink" x="0px" y="0px"
	 width="512px" height="512px" viewBox="0 0 512 512" enable-background="new 0 0 512 512" xml:space="preserve">
<path d="M426.655,0H85.345C38.405,0,0,38.392,0,85.329v341.328C0,473.595,38.405,512,85.345,512h341.311
	C473.625,512,512,473.595,512,426.657V85.329C512,38.392,473.625,0,426.655,0z M128,128h256c4.569,0,9.002,0.981,13.072,2.831
	L256,295.415L114.928,130.83C118.998,128.982,123.431,128,128,128z M96,352V160c0-0.67,0.028-1.336,0.07-2l93.832,109.471
	L97.103,360.27C96.381,357.602,96,354.827,96,352z M384,384H128c-2.827,0-5.601-0.381-8.27-1.104l91.059-91.059L256,344.586
	l45.212-52.747l91.058,91.06C389.6,383.619,386.827,384,384,384z M416,352c0,2.827-0.381,5.6-1.103,8.27l-92.8-92.799L415.93,158
	c0.042,0.664,0.07,1.33,0.07,2V352z"/>
</svg>
