<?xml version="1.0" encoding="utf-8"?>
<!-- Generator: Adobe Illustrator 16.0.4, SVG Export Plug-In . SVG Version: 6.00 Build 0)  -->
<!DOCTYPE svg PUBLIC "-//W3C//DTD SVG 1.1//EN" "http://www.w3.org/Graphics/SVG/1.1/DTD/svg11.dtd">
<svg version="1.1" id="Capa_1" xmlns="http://www.w3.org/2000/svg" xmlns:xlink="http://www.w3.org/1999/xlink" x="0px" y="0px"
	 width="512px" height="512px" viewBox="0 0 512 512" enable-background="new 0 0 512 512" xml:space="preserve">
<path d="M426.671,0H85.343C38.406,0,0,38.405,0,85.345v341.311C0,473.625,38.406,512,85.343,512h341.328
	C473.609,512,512,473.625,512,426.655V85.345C512,38.405,473.609,0,426.671,0z M426.671,64c3.994,0,7.773,1.167,11.01,3.171
	L256,217.373L74.323,67.173C77.562,65.168,81.345,64,85.343,64H426.671z M85.343,448c-0.962,0-1.91-0.073-2.842-0.204
	l112.813-156.483l-14.628-14.627L64,393.371V87.802L256,320L448,87.803v305.568L331.314,276.686l-14.628,14.627l112.814,156.484
	c-0.929,0.13-1.873,0.203-2.831,0.203H85.343z"/>
</svg>
