<?xml version="1.0" encoding="utf-8"?>
<!-- Generator: Adobe Illustrator 16.0.4, SVG Export Plug-In . SVG Version: 6.00 Build 0)  -->
<!DOCTYPE svg PUBLIC "-//W3C//DTD SVG 1.1//EN" "http://www.w3.org/Graphics/SVG/1.1/DTD/svg11.dtd">
<svg version="1.1" id="Capa_1" xmlns="http://www.w3.org/2000/svg" xmlns:xlink="http://www.w3.org/1999/xlink" x="0px" y="0px"
	 width="512px" height="512px" viewBox="0 0 512 512" enable-background="new 0 0 512 512" xml:space="preserve">
<path d="M416,160h-32v-48c0-44.183-85.961-80-192-80S0,67.817,0,112v288c0,44.183,85.961,80,192,80s192-35.817,192-80v-48h32
	c52.8,0,96-43.2,96-96S468.8,160,416,160z M88.028,94.801C116.999,85.256,153.923,80,192,80s75.002,5.256,103.973,14.801
	c18.496,6.094,29.703,12.623,35.704,17.199c-6.001,4.576-17.208,11.104-35.704,17.199C267.002,138.744,230.077,144,192,144
	s-75.001-5.256-103.972-14.801C69.531,123.104,58.324,116.576,52.323,112C58.324,107.424,69.531,100.896,88.028,94.801z
	 M452.182,284.182C447.768,288.596,438.237,296,424,296h-40v-80h40c14.237,0,23.768,7.405,28.182,11.819S464,241.763,464,256
	C464,270.236,456.596,279.768,452.182,284.182z"/>
</svg>
