<?xml version="1.0" encoding="utf-8"?>
<!-- Generator: Adobe Illustrator 16.0.4, SVG Export Plug-In . SVG Version: 6.00 Build 0)  -->
<!DOCTYPE svg PUBLIC "-//W3C//DTD SVG 1.1//EN" "http://www.w3.org/Graphics/SVG/1.1/DTD/svg11.dtd">
<svg version="1.1" id="Capa_1" xmlns="http://www.w3.org/2000/svg" xmlns:xlink="http://www.w3.org/1999/xlink" x="0px" y="0px"
	 width="512px" height="512px" viewBox="0 0 512 512" enable-background="new 0 0 512 512" xml:space="preserve">
<path d="M449.18,32H64v64H17.18C8.38,96,0,102.264,0,111.064v32C0,151.864,8.38,160,17.18,160H64v32H17.18
	C8.38,192,0,198.264,0,207.064v32C0,247.864,8.38,256,17.18,256H64v32H17.18C8.38,288,0,294.264,0,303.064v32
	C0,343.863,8.38,352,17.18,352H64v32H17.18C8.38,384,0,390.264,0,399.064v32C0,439.864,8.38,448,17.18,448H64v64h385.18
	c17.674,0,30.82-15.263,30.82-32.936v-416C480,45.391,466.854,32,449.18,32z M160,480H96v-32h17.18c8.8,0,14.82-8.136,14.82-16.936
	v-32c0-8.801-6.021-15.064-14.82-15.064H96v-32h17.18c8.8,0,14.82-8.136,14.82-16.936v-32c0-8.801-6.021-15.064-14.82-15.064H96v-32
	h17.18c8.8,0,14.82-8.136,14.82-16.936v-32c0-8.801-6.021-15.064-14.82-15.064H96v-32h17.18c8.8,0,14.82-8.136,14.82-16.936v-32
	C128,102.263,121.98,96,113.18,96H96V64h64V480z"/>
</svg>
