<?xml version="1.0" encoding="utf-8"?>
<!-- Generator: Adobe Illustrator 16.0.4, SVG Export Plug-In . SVG Version: 6.00 Build 0)  -->
<!DOCTYPE svg PUBLIC "-//W3C//DTD SVG 1.1//EN" "http://www.w3.org/Graphics/SVG/1.1/DTD/svg11.dtd">
<svg version="1.1" id="Capa_1" xmlns="http://www.w3.org/2000/svg" xmlns:xlink="http://www.w3.org/1999/xlink" x="0px" y="0px"
	 width="512px" height="512px" viewBox="0 0 512 512" enable-background="new 0 0 512 512" xml:space="preserve">
<path d="M256,48c-55.559,0-107.792,21.636-147.078,60.922C69.636,148.208,48,200.441,48,256c0,55.559,21.636,107.792,60.922,147.078
	C148.208,442.364,200.441,464,256,464c55.559,0,107.792-21.636,147.078-60.922S464,311.559,464,256
	c0-55.559-21.636-107.792-60.922-147.078S311.559,48,256,48z M256,0L256,0c141.385,0,256,114.615,256,256S397.385,512,256,512
	S0,397.385,0,256S114.615,0,256,0z M224,352h64v64h-64V352z M224,96h64v192h-64V96z"/>
</svg>
