<?xml version="1.0" encoding="utf-8"?>
<!-- Generator: Adobe Illustrator 16.0.4, SVG Export Plug-In . SVG Version: 6.00 Build 0)  -->
<!DOCTYPE svg PUBLIC "-//W3C//DTD SVG 1.1//EN" "http://www.w3.org/Graphics/SVG/1.1/DTD/svg11.dtd">
<svg version="1.1" id="Capa_1" xmlns="http://www.w3.org/2000/svg" xmlns:xlink="http://www.w3.org/1999/xlink" x="0px" y="0px"
	 width="512px" height="512px" viewBox="0 0 512 512" enable-background="new 0 0 512 512" xml:space="preserve">
<path d="M384,32h-64c-52.936,0-96,43.065-96,96v96H24c-13.2,0-24,10.8-24,24v240c0,13.2,10.8,24,24,24h272c13.2,0,24-10.8,24-24V248
	c0-13.2-10.8-24-24-24h-8v-96c0-17.645,14.355-32,32-32h64c17.645,0,32,14.355,32,32v96h64v-96C480,75.065,436.935,32,384,32z
	 M192,448h-64l13.92-69.6C133.516,372.634,128,362.963,128,352c0-17.673,14.327-32,32-32s32,14.327,32,32
	c0,10.963-5.516,20.634-13.92,26.4L192,448z"/>
</svg>
