<?xml version="1.0" encoding="utf-8"?>
<!-- Generator: Adobe Illustrator 16.0.4, SVG Export Plug-In . SVG Version: 6.00 Build 0)  -->
<!DOCTYPE svg PUBLIC "-//W3C//DTD SVG 1.1//EN" "http://www.w3.org/Graphics/SVG/1.1/DTD/svg11.dtd">
<svg version="1.1" id="Capa_1" xmlns="http://www.w3.org/2000/svg" xmlns:xlink="http://www.w3.org/1999/xlink" x="0px" y="0px"
	 width="512px" height="512px" viewBox="0 0 512 512" enable-background="new 0 0 512 512" xml:space="preserve">
<path d="M416,224h-32v-96C384,57.308,326.692,0,256,0c-70.692,0-128,57.308-128,128v96H96c-17.6,0-32,14.4-32,32v224
	c0,17.6,14.4,32,32,32h320c17.6,0,32-14.4,32-32V256C448,238.4,433.6,224,416,224z M256,416c-17.673,0-32-14.327-32-32
	s14.327-32,32-32s32,14.327,32,32S273.673,416,256,416z M320,224H192v-96c0-35.29,28.71-64,64-64s64,28.71,64,64V224z"/>
</svg>
