<?xml version="1.0" encoding="utf-8"?>
<!-- Generator: Adobe Illustrator 16.0.4, SVG Export Plug-In . SVG Version: 6.00 Build 0)  -->
<!DOCTYPE svg PUBLIC "-//W3C//DTD SVG 1.1//EN" "http://www.w3.org/Graphics/SVG/1.1/DTD/svg11.dtd">
<svg version="1.1" id="Capa_1" xmlns="http://www.w3.org/2000/svg" xmlns:xlink="http://www.w3.org/1999/xlink" x="0px" y="0px"
	 width="512px" height="512px" viewBox="0 0 512 512" enable-background="new 0 0 512 512" xml:space="preserve">
<path d="M512,288V96h-96V64c0-17.6-14.4-32-32-32H32C14.4,32,0,46.4,0,64v96c0,17.6,14.4,32,32,32h352c17.6,0,32-14.4,32-32v-32h64
	v128H192v64h-16c-8.837,0-16,7.163-16,16v160c0,8.837,7.163,16,16,16h64c8.837,0,16-7.163,16-16V336c0-8.837-7.163-16-16-16h-16v-32
	H512z M384,96H32V64h352V96z"/>
</svg>
