<?xml version="1.0" encoding="utf-8"?>
<!-- Generator: Adobe Illustrator 16.0.4, SVG Export Plug-In . SVG Version: 6.00 Build 0)  -->
<!DOCTYPE svg PUBLIC "-//W3C//DTD SVG 1.1//EN" "http://www.w3.org/Graphics/SVG/1.1/DTD/svg11.dtd">
<svg version="1.1" id="Capa_1" xmlns="http://www.w3.org/2000/svg" xmlns:xlink="http://www.w3.org/1999/xlink" x="0px" y="0px"
	 width="512px" height="512px" viewBox="0 0 512 512" enable-background="new 0 0 512 512" xml:space="preserve">
<path d="M348.916,163.524l-32.476-32.461L154.035,293.434c-26.907,26.896-26.907,70.524,0,97.422
	c26.902,26.896,70.53,26.896,97.437,0l194.886-194.854c44.856-44.831,44.856-117.531,0-162.363
	c-44.833-44.852-117.557-44.852-162.392,0L79.335,238.212l0.017,0.016c-0.145,0.152-0.306,0.288-0.438,0.423
	c-62.551,62.548-62.551,163.928,0,226.453c62.527,62.528,163.934,62.528,226.494,0c0.137-0.137,0.258-0.283,0.41-0.438l0.016,0.017
	L445.5,325.037l-32.493-32.46L273.35,432.208h-0.008c-0.148,0.134-0.281,0.285-0.423,0.422c-44.537,44.529-116.99,44.529-161.538,0
	c-44.531-44.521-44.531-116.961,0-161.489c0.152-0.152,0.302-0.291,0.444-0.423l-0.023-0.03l204.64-204.583
	c26.855-26.869,70.571-26.869,97.442,0c26.856,26.867,26.856,70.574,0,97.42l-194.886,194.85c-8.968,8.961-23.527,8.961-32.486,0
	c-8.947-8.943-8.947-23.516,0-32.46L348.916,163.524z"/>
</svg>
