<?xml version="1.0" encoding="utf-8"?>
<!-- Generator: Adobe Illustrator 16.0.4, SVG Export Plug-In . SVG Version: 6.00 Build 0)  -->
<!DOCTYPE svg PUBLIC "-//W3C//DTD SVG 1.1//EN" "http://www.w3.org/Graphics/SVG/1.1/DTD/svg11.dtd">
<svg version="1.1" id="Capa_1" xmlns="http://www.w3.org/2000/svg" xmlns:xlink="http://www.w3.org/1999/xlink" x="0px" y="0px"
	 width="512px" height="512px" viewBox="0 0 512 512" enable-background="new 0 0 512 512" xml:space="preserve">
<path d="M440.317,65.387c12.849,6.288,24.047,15.243,32.251,26.241c17.268,23.15,22.117,54.686,14.418,93.733
	c-7.78,39.513-25.208,72.868-50.583,97.022c-4.642,4.852-9.611,9.373-14.902,13.54c-27.178,21.401-61.499,32.714-99.254,32.714
	h-6.056H202.217L169.935,480h-66.212l5.043-23.15h23.064l32.282-151.363h94.135c90.125,0,165.469-55.538,185.629-149.967
	C466.737,48.602,390.077,0,324.171,0H99.532L0,456.85h76.016L64,512h131.83l32.282-151.363h94.135
	c90.125,0,165.469-55.539,185.629-149.968C524.734,131.829,487.474,84.703,440.317,65.387z M320.131,155.519
	c-6.862,29.53-32.214,54.02-60.328,60.684l15.369-68.011h46.493C321.301,150.595,320.804,153.037,320.131,155.519z M211.172,93.041
	h64.566c18.38,0,33.254,9.002,40.935,23.15h-67.077l-23.008,101.815h-43.656L211.172,93.041z"/>
</svg>
