<?xml version="1.0" encoding="utf-8"?>
<!-- Generator: Adobe Illustrator 16.0.4, SVG Export Plug-In . SVG Version: 6.00 Build 0)  -->
<!DOCTYPE svg PUBLIC "-//W3C//DTD SVG 1.1//EN" "http://www.w3.org/Graphics/SVG/1.1/DTD/svg11.dtd">
<svg version="1.1" id="Capa_1" xmlns="http://www.w3.org/2000/svg" xmlns:xlink="http://www.w3.org/1999/xlink" x="0px" y="0px"
	 width="512px" height="512px" viewBox="0 0 512 512" enable-background="new 0 0 512 512" xml:space="preserve">
<path d="M324.171,32c14.166,0,28.459,2.902,41.333,8.392c13.542,5.774,24.662,13.962,33.052,24.336
	c16.8,20.771,21.52,49.066,14.025,84.109c-8.153,38.189-27.199,69.98-55.08,91.935c-27.178,21.401-61.499,32.714-99.254,32.714
	h-94.135h-25.895l-5.401,25.324L105.935,424.85H82.986h-6.971H39.723L125.311,32H324.171 M142.893,250.007h40.039h61.879
	c23.718,0,47.748-9.085,67.659-25.582c19.41-16.081,33.138-37.761,38.698-61.1c6.951-26.262,2.315-52.576-12.757-72.277
	c-14.588-19.07-37.433-30.007-62.673-30.007h-64.566h-25.575l-5.638,24.946l-28.241,124.966L142.893,250.007 M324.171,0H99.532
	L0,456.85h76.016L64,512h131.83l32.282-151.363h94.135c90.125,0,165.469-55.539,185.629-149.968
	c16.858-78.84-20.402-125.966-67.559-145.282c12.849,6.288,24.047,15.243,32.251,26.241c17.268,23.15,22.117,54.686,14.418,93.733
	c-7.78,39.513-25.208,72.868-50.583,97.022c-4.642,4.852-9.611,9.373-14.902,13.54c-27.178,21.401-61.499,32.714-99.254,32.714
	h-6.056H202.217L169.935,480h-66.212l5.043-23.15h23.064l32.282-151.363h94.135c90.125,0,165.469-55.538,185.629-149.967
	C466.737,48.602,390.077,0,324.171,0L324.171,0z M182.932,218.007l28.241-124.966h64.566c32.296,0,53.801,27.769,44.393,62.478
	c-8.067,34.72-41.692,62.488-75.32,62.488H182.932L182.932,218.007z"/>
</svg>
