<?xml version="1.0" encoding="utf-8"?>
<!-- Generator: Adobe Illustrator 16.0.4, SVG Export Plug-In . SVG Version: 6.00 Build 0)  -->
<!DOCTYPE svg PUBLIC "-//W3C//DTD SVG 1.1//EN" "http://www.w3.org/Graphics/SVG/1.1/DTD/svg11.dtd">
<svg version="1.1" id="Capa_1" xmlns="http://www.w3.org/2000/svg" xmlns:xlink="http://www.w3.org/1999/xlink" x="0px" y="0px"
	 width="512px" height="512px" viewBox="0 0 512 512" enable-background="new 0 0 512 512" xml:space="preserve">
<path d="M508.689,287.997c4.002,27.741,6.607,65.696-5.832,80.224c-20.571,24.021-150.856,24.021-150.856-24.021
	c0-24.199,21.428-40.067,0.856-64.09c-20.236-23.63-56.514-24.014-96.857-24.021c-40.343,0.006-76.621,0.39-96.857,24.021
	C138.572,304.133,160,320,160,344.199c0,48.043-130.285,48.043-150.857,24.021c-12.439-14.527-9.834-52.481-5.831-80.223
	c3.08-18.52,10.862-38.498,35.774-63.997c0-0.001,0.001-0.001,0.001-0.002C76.456,189.128,133.01,160.63,254,160.015V160
	c0.672,0,1.332,0.005,2,0.007c0.669-0.002,1.328-0.007,2-0.007v0.014c120.99,0.615,177.544,29.113,214.913,63.984
	c0.001,0.001,0.001,0.002,0.001,0.002C497.826,249.498,505.609,269.477,508.689,287.997z"/>
</svg>
