<?xml version="1.0" encoding="utf-8"?>
<!-- Generator: Adobe Illustrator 16.0.4, SVG Export Plug-In . SVG Version: 6.00 Build 0)  -->
<!DOCTYPE svg PUBLIC "-//W3C//DTD SVG 1.1//EN" "http://www.w3.org/Graphics/SVG/1.1/DTD/svg11.dtd">
<svg version="1.1" id="Capa_1" xmlns="http://www.w3.org/2000/svg" xmlns:xlink="http://www.w3.org/1999/xlink" x="0px" y="0px"
	 width="512px" height="512px" viewBox="0 0 512 512" enable-background="new 0 0 512 512" xml:space="preserve">
<path d="M426.688,0H85.344C38.406,0,0,38.406,0,85.341v341.313C0,473.625,38.406,512,85.344,512h341.339
	C473.622,512,512,473.623,512,426.652V85.341C512,38.406,473.622,0,426.688,0z M256,32c34.357,0,66.902,7.745,96,21.569V197.13
	L195.221,40.351C214.549,34.914,234.934,32,256,32z M32,256c0-87.944,50.688-164.037,124.437-200.693L213.13,112L34.643,290.486
	C32.906,279.245,32,267.729,32,256z M128,439.831c-37.342-26.049-66.382-63.174-82.336-106.625L128,250.87V439.831z M256,480
	c-34.357,0-66.902-7.745-96-21.569V384h279.831C399.353,442.026,332.116,480,256,480z M458.431,352H384V72.168
	c58.026,40.479,96,107.715,96,183.832C480,290.357,472.255,322.902,458.431,352z"/>
</svg>
