<?xml version="1.0" encoding="utf-8"?>
<!-- Generator: Adobe Illustrator 16.0.4, SVG Export Plug-In . SVG Version: 6.00 Build 0)  -->
<!DOCTYPE svg PUBLIC "-//W3C//DTD SVG 1.1//EN" "http://www.w3.org/Graphics/SVG/1.1/DTD/svg11.dtd">
<svg version="1.1" id="Capa_1" xmlns="http://www.w3.org/2000/svg" xmlns:xlink="http://www.w3.org/1999/xlink" x="0px" y="0px"
	 width="544px" height="512px" viewBox="0 0 544 512" enable-background="new 0 0 544 512" xml:space="preserve">
<path d="M496,32H384c-26.4,0-63.273,15.273-81.941,33.941L113.941,254.059c-18.667,18.667-18.667,49.214,0,67.882l140.118,140.116
	c18.667,18.668,49.214,18.668,67.882,0l188.116-188.116C528.727,255.273,544,218.4,544,192V80C544,53.6,522.4,32,496,32z M432,192
	c-26.51,0-48-21.49-48-48s21.49-48,48-48s48,21.49,48,48S458.51,192,432,192z M43.313,299.312l171.189,171.189
	c-18.132,9.58-41.231,6.77-56.443-8.444L17.941,321.941c-18.667-18.668-18.667-49.215,0-67.882L206.059,65.941
	C224.727,47.273,261.6,32,288,32L43.313,276.686C37.091,282.909,37.091,293.09,43.313,299.312z"/>
</svg>
