<?xml version="1.0" encoding="utf-8"?>
<!-- Generator: Adobe Illustrator 16.0.4, SVG Export Plug-In . SVG Version: 6.00 Build 0)  -->
<!DOCTYPE svg PUBLIC "-//W3C//DTD SVG 1.1//EN" "http://www.w3.org/Graphics/SVG/1.1/DTD/svg11.dtd">
<svg version="1.1" id="Capa_1" xmlns="http://www.w3.org/2000/svg" xmlns:xlink="http://www.w3.org/1999/xlink" x="0px" y="0px"
	 width="512px" height="512px" viewBox="0 0 512 512" enable-background="new 0 0 512 512" xml:space="preserve">
<path d="M367.497,402.688c-9.476-1.494-9.692-27.328-9.692-27.328s27.845-27.327,33.912-64.075
	c16.326,0,26.407-39.069,10.082-52.813C402.48,244,422.783,144.882,320,144.882c-102.782,0-82.479,99.118-81.799,113.589
	c-16.327,13.744-6.244,52.813,10.081,52.813c6.067,36.748,33.913,64.075,33.913,64.075s-0.217,25.834-9.692,27.328
	C241.979,407.503,128,457.345,128,512h192h192C512,457.345,398.021,407.503,367.497,402.688z M172.027,411.405
	c22.047-13.575,48.813-26.154,70.769-33.712c-7.876-11.217-16.647-26.469-22.165-44.531c-7.703-6.283-13.972-15.266-17.999-26.301
	c-4.033-11.053-5.561-23.426-4.304-34.842c0.902-8.197,3.239-15.833,6.825-22.544c-2.175-23.293-3.707-69.017,26.224-102.366
	c11.607-12.933,26.277-22.23,43.85-27.843c-3.137-32.38-19.58-70.385-83.227-70.385c-102.782,0-82.479,99.118-81.799,113.588
	c-16.327,13.745-6.244,52.814,10.081,52.814c6.067,36.748,33.913,64.076,33.913,64.076s-0.216,25.832-9.692,27.326
	C113.979,311.503,0,361.346,0,416h164.798C167.153,414.463,169.551,412.93,172.027,411.405z"/>
</svg>
