<?xml version="1.0" encoding="utf-8"?>
<!-- Generator: Adobe Illustrator 16.0.4, SVG Export Plug-In . SVG Version: 6.00 Build 0)  -->
<!DOCTYPE svg PUBLIC "-//W3C//DTD SVG 1.1//EN" "http://www.w3.org/Graphics/SVG/1.1/DTD/svg11.dtd">
<svg version="1.1" id="Capa_1" xmlns="http://www.w3.org/2000/svg" xmlns:xlink="http://www.w3.org/1999/xlink" x="0px" y="0px"
	 width="512px" height="512px" viewBox="0 0 512 512" enable-background="new 0 0 512 512" xml:space="preserve">
<path d="M424,512H88c-13.255,0-24-10.745-24-24c0-34.431,14.534-76.102,38.879-111.471c20.346-29.559,45.342-51.811,72.339-64.805
	c-11.899-10.822-22.147-24.014-30.254-39.062c-13-24.131-19.873-52.024-19.873-80.664c0-39.803,13.102-77.411,36.893-105.895
	C186.816,56.374,220.205,40,256,40s69.184,16.374,94.017,46.105c23.79,28.484,36.894,66.091,36.894,105.895
	c0,28.64-6.872,56.533-19.872,80.664c-8.107,15.048-18.355,28.238-30.255,39.061c26.997,12.996,51.993,35.246,72.339,64.805
	C433.466,411.898,448,453.569,448,488C448,501.255,437.255,512,424,512z M115.037,464h281.926
	c-4.613-19.67-14.26-41.192-27.381-60.255c-20.727-30.113-46.588-49.812-72.818-55.463c-11.054-2.382-18.945-12.155-18.945-23.462
	v-17.146c0-8.63,4.634-16.595,12.136-20.861C319.693,269.896,338.91,232.68,338.91,192c0-57.346-37.192-104-82.909-104
	c-45.716,0-82.909,46.654-82.909,104c0,40.68,19.217,77.896,48.957,94.812c7.501,4.268,12.134,12.231,12.134,20.861v17.146
	c0,11.307-7.892,21.08-18.944,23.462c-26.231,5.651-52.092,25.35-72.82,55.463C129.296,422.808,119.651,444.33,115.037,464z"/>
</svg>
