<?xml version="1.0" encoding="utf-8"?>
<!-- Generator: Adobe Illustrator 16.0.4, SVG Export Plug-In . SVG Version: 6.00 Build 0)  -->
<!DOCTYPE svg PUBLIC "-//W3C//DTD SVG 1.1//EN" "http://www.w3.org/Graphics/SVG/1.1/DTD/svg11.dtd">
<svg version="1.1" id="Capa_1" xmlns="http://www.w3.org/2000/svg" xmlns:xlink="http://www.w3.org/1999/xlink" x="0px" y="0px"
	 width="512px" height="512px" viewBox="0 0 512 512" enable-background="new 0 0 512 512" xml:space="preserve">
<path d="M128,320c0,17.674,14.327,32,32,32s32-14.326,32-32s-14.327-32-32-32S128,302.326,128,320z M320,320
	c0,17.674,14.327,32,32,32s32-14.326,32-32s-14.327-32-32-32S320,302.326,320,320z M321.556,388.389
	c8.241-6.492,20.188-5.076,26.683,3.166c6.494,8.243,5.076,20.189-3.167,26.684C322.123,436.317,287.16,448,256,448
	c-31.161,0-66.124-11.683-89.072-29.761c-8.243-6.495-9.66-18.441-3.166-26.685c6.495-8.24,18.441-9.658,26.683-3.166
	C203.656,398.798,229.806,410,256,410C282.193,410,308.344,398.798,321.556,388.389z M512,256c0-35.346-28.654-64-64-64
	c-24.058,0-44.996,13.285-55.926,32.91c-32.896-17.997-72.977-29.623-116.641-32.304l38.191-85.763l73.097,21.1
	C393.298,146.614,411.081,160,432,160c26.51,0,48-21.49,48-48s-21.49-48-48-48c-18.28,0-34.171,10.221-42.277,25.257L308.27,65.745
	c-9.111-2.629-18.769,1.861-22.625,10.526l-51.886,116.513c-42.569,2.998-81.631,14.511-113.818,32.118
	C109.009,205.277,88.058,192,64,192c-35.346,0-64,28.654-64,64c0,26.156,15.701,48.627,38.186,58.551
	C34.151,326.564,32,339.104,32,352c0,88.365,100.288,160,224,160c123.711,0,224-71.635,224-160c0-12.896-2.15-25.432-6.184-37.443
	C496.301,304.632,512,282.156,512,256z M432,94c9.941,0,18,8.059,18,18s-8.059,18-18,18s-18-8.059-18-18S422.059,94,432,94z M32,256
	c0-17.645,14.355-32,32-32c12.754,0,23.786,7.502,28.923,18.323c-16.724,12.683-30.583,27.312-40.833,43.368
	C40.328,280.957,32,269.436,32,256z M256,474c-102.725,0-186-54.621-186-122s83.275-122,186-122c102.725,0,186,54.621,186,122
	S358.725,474,256,474z M459.91,285.691c-10.25-16.056-24.109-30.686-40.833-43.369C424.215,231.502,435.246,224,448,224
	c17.645,0,32,14.355,32,32C480,269.436,471.672,280.957,459.91,285.691z"/>
</svg>
