<?xml version="1.0" encoding="utf-8"?>
<!-- Generator: Adobe Illustrator 16.0.4, SVG Export Plug-In . SVG Version: 6.00 Build 0)  -->
<!DOCTYPE svg PUBLIC "-//W3C//DTD SVG 1.1//EN" "http://www.w3.org/Graphics/SVG/1.1/DTD/svg11.dtd">
<svg version="1.1" id="Capa_1" xmlns="http://www.w3.org/2000/svg" xmlns:xlink="http://www.w3.org/1999/xlink" x="0px" y="0px"
	 width="512px" height="512px" viewBox="0 0 512 512" enable-background="new 0 0 512 512" xml:space="preserve">
<path d="M256,0C114.615,0,0,114.615,0,256s114.615,256,256,256s256-114.615,256-256S397.385,0,256,0z M160,224
	c-17.673,0-32-21.49-32-48s14.327-48,32-48s32,21.49,32,48S177.673,224,160,224z M256,416c-35.346,0-64-28.654-64-64
	s28.654-64,64-64c35.346,0,64,28.654,64,64S291.346,416,256,416z M352,224c-17.673,0-32-21.49-32-48s14.327-48,32-48s32,21.49,32,48
	S369.673,224,352,224z"/>
</svg>
