<?xml version="1.0" encoding="utf-8"?>
<!-- Generator: Adobe Illustrator 16.0.4, SVG Export Plug-In . SVG Version: 6.00 Build 0)  -->
<!DOCTYPE svg PUBLIC "-//W3C//DTD SVG 1.1//EN" "http://www.w3.org/Graphics/SVG/1.1/DTD/svg11.dtd">
<svg version="1.1" id="Capa_1" xmlns="http://www.w3.org/2000/svg" xmlns:xlink="http://www.w3.org/1999/xlink" x="0px" y="0px"
	 width="512px" height="512px" viewBox="0 0 512 512" enable-background="new 0 0 512 512" xml:space="preserve">
<path d="M423.609,288c17.6,0,35.956-13.846,40.791-30.77l46.418-162.462C515.653,77.846,505.209,64,487.609,64H160
	c0-35.346-28.654-64-64-64H0v64h96v272c0,26.51,21.49,48,48,48h304c17.673,0,32-14.327,32-32s-14.327-32-32-32H160v-32H423.609z
	 M160,128h289.403l-27.43,96H160V128z M192,472c0,22-18,40-40,40h-16c-22,0-40-18-40-40v-16c0-22,18-40,40-40h16c22,0,40,18,40,40
	V472z M480,472c0,22-18,40-40,40h-16c-22,0-40-18-40-40v-16c0-22,18-40,40-40h16c22,0,40,18,40,40V472z"/>
</svg>
