<?xml version="1.0" encoding="utf-8"?>
<!-- Generator: Adobe Illustrator 16.0.4, SVG Export Plug-In . SVG Version: 6.00 Build 0)  -->
<!DOCTYPE svg PUBLIC "-//W3C//DTD SVG 1.1//EN" "http://www.w3.org/Graphics/SVG/1.1/DTD/svg11.dtd">
<svg version="1.1" id="Capa_1" xmlns="http://www.w3.org/2000/svg" xmlns:xlink="http://www.w3.org/1999/xlink" x="0px" y="0px"
	 width="512px" height="512px" viewBox="0 0 512 512" enable-background="new 0 0 512 512" xml:space="preserve">
<path d="M512,128L384,0v96c-65.386,0-115.376,15.604-152.825,47.704c-2.625,2.25-5.142,4.55-7.581,6.887
	c13.76,19.082,24.358,38.758,33.886,57.545C281.641,178.935,316.507,160,384,160v96l0,0v96
	c-108.223,0-132.563-48.68-163.378-110.311c-17.153-34.306-34.89-69.78-67.796-97.985C115.376,111.604,65.386,96,0,96v64
	c108.223,0,132.563,48.68,163.378,110.311c17.153,34.307,34.89,69.78,67.796,97.985C268.624,400.396,318.615,416,384,416v96l128-128
	L384,256L512,128z M0,352v64c65.386,0,115.375-15.604,152.825-47.704c2.625-2.249,5.142-4.55,7.581-6.888
	c-13.76-19.081-24.359-38.758-33.886-57.545C102.36,333.064,67.494,352,0,352z"/>
</svg>
