<?xml version="1.0" encoding="utf-8"?>
<!-- Generator: Adobe Illustrator 16.0.4, SVG Export Plug-In . SVG Version: 6.00 Build 0)  -->
<!DOCTYPE svg PUBLIC "-//W3C//DTD SVG 1.1//EN" "http://www.w3.org/Graphics/SVG/1.1/DTD/svg11.dtd">
<svg version="1.1" id="Capa_1" xmlns="http://www.w3.org/2000/svg" xmlns:xlink="http://www.w3.org/1999/xlink" x="0px" y="0px"
	 width="576px" height="512px" viewBox="0 0 576 512" enable-background="new 0 0 576 512" xml:space="preserve">
<path d="M544,450.583c0,22.75,13.014,42.454,32,52.092v7.969c-5.312,0.728-10.736,1.112-16.25,1.112
	c-34.004,0-64.674-14.264-86.361-37.132C460.278,478.115,446.388,480,432,480c-79.529,0-144-57.308-144-128
	c0-70.691,64.471-128,144-128s144,57.309,144,128c0,27.674-9.882,53.296-26.678,74.233C545.91,433.645,544,441.889,544,450.583z
	 M256,0c139.229,0,252.496,90.307,255.918,202.76C487.327,191.8,460.125,186,432,186c-47.78,0-92.908,16.723-127.068,47.089
	C269.508,264.575,250,306.807,250,352c0,22.336,4.772,43.943,13.868,63.894C261.254,415.957,258.634,416,256,416
	c-13.578,0-26.905-0.867-39.912-2.522C161.099,468.467,95.463,478.328,32,479.776v-13.458c34.268-16.789,64-47.37,64-82.318
	c0-4.877-0.379-9.665-1.082-14.348C37.02,331.52,0,273.275,0,208C0,93.125,114.615,0,256,0z"/>
</svg>
