<?xml version="1.0" encoding="utf-8"?>
<!-- Generator: Adobe Illustrator 16.0.4, SVG Export Plug-In . SVG Version: 6.00 Build 0)  -->
<!DOCTYPE svg PUBLIC "-//W3C//DTD SVG 1.1//EN" "http://www.w3.org/Graphics/SVG/1.1/DTD/svg11.dtd">
<svg version="1.1" id="Capa_1" xmlns="http://www.w3.org/2000/svg" xmlns:xlink="http://www.w3.org/1999/xlink" x="0px" y="0px"
	 width="576px" height="512px" viewBox="0 0 576 512" enable-background="new 0 0 576 512" xml:space="preserve">
<path d="M544,450.583c0,22.75,13.014,42.454,32,52.092v7.969c-5.312,0.728-10.736,1.112-16.25,1.112
	c-34.004,0-64.674-14.264-86.361-37.132C460.278,478.115,446.388,480,432,480c-79.529,0-144-57.308-144-128
	c0-70.691,64.471-128,144-128s144,57.309,144,128c0,27.674-9.882,53.296-26.678,74.233C545.91,433.645,544,441.889,544,450.583z
	 M115.339,110.593C82.232,137.492,64,172.085,64,208c0,20.149,5.594,39.689,16.626,58.075c11.376,18.96,28.491,36.293,49.494,50.126
	c15.178,9.996,25.39,25.974,28.088,43.947c0.9,5.992,1.464,12.043,1.685,18.062c3.735-3.097,7.375-6.423,10.94-9.987
	c12.077-12.076,28.39-18.746,45.251-18.746c2.684,0,5.381,0.168,8.078,0.513c10.474,1.331,21.172,2.008,31.797,2.01v64
	c-13.564-0.001-26.877-0.869-39.871-2.521C161.099,468.467,95.463,478.328,32,479.776v-13.458c34.268-16.789,64-47.37,64-82.318
	c0-4.877-0.379-9.665-1.082-14.348C37.02,331.52,0,273.275,0,208C0,93.125,114.615,0,256,0c139.229,0,252.496,90.307,255.918,202.76
	c-20.548-9.158-42.92-14.711-66.131-16.289c-5.765-28.034-22.701-54.408-49.126-75.878C379,96.244,358.203,84.898,334.847,76.871
	C309.994,68.331,283.467,64,256,64c-27.466,0-53.994,4.331-78.847,12.871C153.797,84.898,133,96.243,115.339,110.593z"/>
</svg>
