<?xml version="1.0" encoding="utf-8"?>
<!-- Generator: Adobe Illustrator 16.0.4, SVG Export Plug-In . SVG Version: 6.00 Build 0)  -->
<!DOCTYPE svg PUBLIC "-//W3C//DTD SVG 1.1//EN" "http://www.w3.org/Graphics/SVG/1.1/DTD/svg11.dtd">
<svg version="1.1" id="Capa_1" xmlns="http://www.w3.org/2000/svg" xmlns:xlink="http://www.w3.org/1999/xlink" x="0px" y="0px"
	 width="512px" height="512px" viewBox="0 0 512 512" enable-background="new 0 0 512 512" xml:space="preserve">
<path d="M192,64c0,35.346,28.654,64,64,64c35.346,0,64-28.654,64-64S291.346,0,256,0C220.654,0,192,28.654,192,64z M327.765,120.235
	c0,35.346,28.654,64,64,64c35.347,0,64-28.654,64-64s-28.653-64-64-64C356.419,56.235,327.765,84.889,327.765,120.235z M416,256
	c0,17.674,14.327,32,32,32s32-14.326,32-32c0-17.673-14.327-32-32-32S416,238.327,416,256z M359.765,391.766
	c0,17.673,14.327,31.999,32,31.999c17.674,0,32-14.326,32-31.999c0-17.674-14.326-32-32-32
	C374.092,359.766,359.765,374.092,359.765,391.766z M224.001,448c0,17.673,14.327,32,32,32s32-14.327,32-32s-14.327-32-32-32
	S224.001,430.327,224.001,448z M88.236,391.766c-0.008,17.673,14.312,32.007,31.984,32.015
	c17.673,0.009,32.007-14.311,32.016-31.983c0-0.012,0-0.021,0-0.031c0.009-17.674-14.311-32.008-31.984-32.016
	c-17.673-0.01-32.007,14.311-32.016,31.984C88.236,391.744,88.236,391.754,88.236,391.766z M72.236,120.235
	c-0.01,26.51,21.471,48.009,47.981,48.019c26.51,0.011,48.009-21.471,48.019-47.98c0-0.013,0-0.026,0-0.039
	c0.011-26.509-21.471-48.008-47.98-48.019c-26.51-0.011-48.009,21.471-48.02,47.981C72.236,120.209,72.236,120.222,72.236,120.235z
	 M28,256c0,19.883,16.118,36,36,36s36-16.117,36-36c0-19.882-16.118-36-36-36S28,236.118,28,256L28,256z"/>
</svg>
