<?xml version="1.0" encoding="utf-8"?>
<!-- Generator: Adobe Illustrator 16.0.4, SVG Export Plug-In . SVG Version: 6.00 Build 0)  -->
<!DOCTYPE svg PUBLIC "-//W3C//DTD SVG 1.1//EN" "http://www.w3.org/Graphics/SVG/1.1/DTD/svg11.dtd">
<svg version="1.1" id="Capa_1" xmlns="http://www.w3.org/2000/svg" xmlns:xlink="http://www.w3.org/1999/xlink" x="0px" y="0px"
	 width="512px" height="512px" viewBox="0 0 512 512" enable-background="new 0 0 512 512" xml:space="preserve">
<path d="M256,0C116.626,0,3.271,111.381,0.076,249.987C3.036,129.055,94.992,32,208,32c114.875,0,208,100.288,208,224
	c0,26.51,21.49,48,48,48s48-21.49,48-48C512,114.615,397.385,0,256,0z M256,512c139.374,0,252.729-111.381,255.924-249.986
	C508.964,382.945,417.008,480,304,480C189.125,480,96,379.712,96,256c0-26.51-21.49-48-48-48S0,229.49,0,256
	C0,397.385,114.615,512,256,512z"/>
</svg>
