<?xml version="1.0" encoding="utf-8"?>
<!-- Generator: Adobe Illustrator 16.0.4, SVG Export Plug-In . SVG Version: 6.00 Build 0)  -->
<!DOCTYPE svg PUBLIC "-//W3C//DTD SVG 1.1//EN" "http://www.w3.org/Graphics/SVG/1.1/DTD/svg11.dtd">
<svg version="1.1" id="Capa_1" xmlns="http://www.w3.org/2000/svg" xmlns:xlink="http://www.w3.org/1999/xlink" x="0px" y="0px"
	 width="512px" height="512px" viewBox="0 0 512 512" enable-background="new 0 0 512 512" xml:space="preserve">
<path d="M256,0C114.615,0,0,114.615,0,256s114.615,256,256,256s256-114.615,256-256S397.385,0,256,0z M256,128
	c-17.645,0-32,14.355-32,32v128c0,52.936-43.065,96-96,96s-96-43.064-96-96v-64h64v64c0,17.645,14.355,32,32,32s32-14.355,32-32V160
	c0-52.935,43.065-96,96-96c52.935,0,96,43.065,96,89v31l-41,12l-23-12v-31C288,142.355,273.645,128,256,128z M384,384
	c-52.935,0-96-43.064-96-103v-62l23,12l41-12v62c0,24.645,14.355,39,32,39s32-14.355,32-32v-64h64v64
	C480,340.936,436.935,384,384,384z"/>
</svg>
