<?xml version="1.0" encoding="utf-8"?>
<!-- Generator: Adobe Illustrator 16.0.4, SVG Export Plug-In . SVG Version: 6.00 Build 0)  -->
<!DOCTYPE svg PUBLIC "-//W3C//DTD SVG 1.1//EN" "http://www.w3.org/Graphics/SVG/1.1/DTD/svg11.dtd">
<svg version="1.1" id="Capa_1" xmlns="http://www.w3.org/2000/svg" xmlns:xlink="http://www.w3.org/1999/xlink" x="0px" y="0px"
	 width="512px" height="512px" viewBox="0 0 512 512" enable-background="new 0 0 512 512" xml:space="preserve">
<path d="M0,96v352h512V96H0z M192,320v-64h128v64H192z M320,352v64H192v-64H320z M320,160v64H192v-64H320z M160,160v64H32v-64H160z
	 M32,256h128v64H32V256z M352,256h128v64H352V256z M352,224v-64h128v64H352z M32,352h128v64H32V352z M352,416v-64h128v64H352z"/>
</svg>
