<?xml version="1.0" encoding="utf-8"?>
<!-- Generator: Adobe Illustrator 16.0.4, SVG Export Plug-In . SVG Version: 6.00 Build 0)  -->
<!DOCTYPE svg PUBLIC "-//W3C//DTD SVG 1.1//EN" "http://www.w3.org/Graphics/SVG/1.1/DTD/svg11.dtd">
<svg version="1.1" id="Capa_1" xmlns="http://www.w3.org/2000/svg" xmlns:xlink="http://www.w3.org/1999/xlink" x="0px" y="0px"
	 width="512px" height="512px" viewBox="0 0 512 512" enable-background="new 0 0 512 512" xml:space="preserve">
<path d="M512,224h-50.462C447.718,134.88,377.12,64.282,288,50.462V0h-64v50.462C134.88,64.282,64.282,134.88,50.462,224H0v64
	h50.462C64.282,377.12,134.88,447.718,224,461.538V512h64v-50.462C377.12,447.718,447.718,377.12,461.538,288H512V224z M396.411,224
	H346.53c-9.643-27.275-31.255-48.889-58.53-58.53v-49.881C341.757,127.834,384.166,170.244,396.411,224z M256,288
	c-17.673,0-32-14.327-32-32s14.327-32,32-32s32,14.327,32,32S273.673,288,256,288z M224,115.589v49.881
	c-27.275,9.641-48.889,31.255-58.53,58.53h-49.881C127.834,170.244,170.244,127.834,224,115.589z M115.589,288h49.881
	c9.641,27.275,31.255,48.889,58.53,58.529v49.882C170.244,384.166,127.834,341.757,115.589,288z M288,396.411v-49.882
	c27.275-9.641,48.889-31.254,58.53-58.529h49.881C384.166,341.757,341.757,384.166,288,396.411z"/>
</svg>
