<?xml version="1.0" encoding="utf-8"?>
<!-- Generator: Adobe Illustrator 16.0.4, SVG Export Plug-In . SVG Version: 6.00 Build 0)  -->
<!DOCTYPE svg PUBLIC "-//W3C//DTD SVG 1.1//EN" "http://www.w3.org/Graphics/SVG/1.1/DTD/svg11.dtd">
<svg version="1.1" id="Capa_1" xmlns="http://www.w3.org/2000/svg" xmlns:xlink="http://www.w3.org/1999/xlink" x="0px" y="0px"
	 width="512px" height="512px" viewBox="0 0 512 512" enable-background="new 0 0 512 512" xml:space="preserve">
<path d="M48,224c-36.5,0-16-96,16-96c-16,0,0-80,32-80c0-32,32-48,64-48c135.176,0,87.632,33.825,224,48v256
	c-120.461,36.134-240,126.712-240,208c-26.5,0-96-32,0-192c0,0-80,0-96,0C0,320,16,224,48,224z M416,304V48h-32V32h64
	c17.6,0,32,21.6,32,48v192c0,26.4-14.4,48-32,48h-64v-16H416z"/>
</svg>
