<?xml version="1.0" encoding="utf-8"?>
<!-- Generator: Adobe Illustrator 16.0.4, SVG Export Plug-In . SVG Version: 6.00 Build 0)  -->
<!DOCTYPE svg PUBLIC "-//W3C//DTD SVG 1.1//EN" "http://www.w3.org/Graphics/SVG/1.1/DTD/svg11.dtd">
<svg version="1.1" id="Capa_1" xmlns="http://www.w3.org/2000/svg" xmlns:xlink="http://www.w3.org/1999/xlink" x="0px" y="0px"
	 width="512px" height="512px" viewBox="0 0 512 512" enable-background="new 0 0 512 512" xml:space="preserve">
<path d="M287.998,160l63.999,63.999L224,351.996l-63.999-63.999L287.998,160z M500.763,148.752l-36.758-36.758l-16.004,16.004
	c-8.188,8.19-19.505,13.255-32,13.255c-24.994,0-45.257-20.261-45.257-45.255c0-12.501,5.07-23.819,13.267-32.009l15.994-15.993
	l-36.759-36.758c-14.984-14.984-39.504-14.984-54.488,0L11.238,308.757c-14.983,14.984-14.983,39.505,0,54.488l36.76,36.759
	l15.981-15.982c8.191-8.203,19.515-13.275,32.022-13.275c24.994,0,45.255,20.262,45.255,45.255c0,12.503-5.07,23.82-13.267,32.011
	l-15.992,15.993l36.758,36.759c14.983,14.983,39.504,14.983,54.488,0l297.52-297.52
	C515.745,188.256,515.745,163.736,500.763,148.752z M224.001,415.998l-128-128l192-192l128,128L224.001,415.998z"/>
</svg>
