<?xml version="1.0" encoding="utf-8"?>
<!-- Generator: Adobe Illustrator 16.0.4, SVG Export Plug-In . SVG Version: 6.00 Build 0)  -->
<!DOCTYPE svg PUBLIC "-//W3C//DTD SVG 1.1//EN" "http://www.w3.org/Graphics/SVG/1.1/DTD/svg11.dtd">
<svg version="1.1" id="Capa_1" xmlns="http://www.w3.org/2000/svg" xmlns:xlink="http://www.w3.org/1999/xlink" x="0px" y="0px"
	 width="512px" height="512px" viewBox="0 0 512 512" enable-background="new 0 0 512 512" xml:space="preserve">
<path d="M288.016,224v117.092c0,29.709-0.386,46.828,2.764,55.25c3.125,8.377,10.96,17.073,19.496,22.102
	c11.342,6.794,24.271,10.188,38.854,10.188c25.927,0,41.239-3.424,66.871-20.27v76.972l0,0
	c-21.85,10.276-40.933,16.297-58.662,20.461c-17.75,4.121-36.93,6.203-57.531,6.203c-23.414,0-37.229-2.943-55.206-8.828
	c-17.979-5.934-33.33-14.403-46.01-25.27c-12.725-10.962-21.511-22.604-26.424-34.916c-4.913-12.318-7.358-30.207-7.358-53.622
	v-179.55H96.096v-72.503c20.104-6.521,42.582-15.894,56.89-28.076c14.377-12.225,25.883-26.853,34.553-43.972
	c8.696-17.073,14.674-38.856,17.936-65.258h82.542L288.016,128H416v96H288.016z"/>
</svg>
