<?xml version="1.0" encoding="utf-8"?>
<!-- Generator: Adobe Illustrator 16.0.4, SVG Export Plug-In . SVG Version: 6.00 Build 0)  -->
<!DOCTYPE svg PUBLIC "-//W3C//DTD SVG 1.1//EN" "http://www.w3.org/Graphics/SVG/1.1/DTD/svg11.dtd">
<svg version="1.1" id="Capa_1" xmlns="http://www.w3.org/2000/svg" xmlns:xlink="http://www.w3.org/1999/xlink" x="0px" y="0px"
	 width="512px" height="512px" viewBox="0 0 512 512" enable-background="new 0 0 512 512" xml:space="preserve">
<path d="M144,192H48c-8.8,0-16,7.2-16,16v288c0,8.8,7.2,16,16,16h96c8.8,0,16-7.2,16-16V208C160,199.2,152.8,192,144,192z M144,480
	H48V352h96V480z M304,128h-96c-8.8,0-16,7.2-16,16v352c0,8.8,7.2,16,16,16h96c8.8,0,16-7.2,16-16V144C320,135.2,312.8,128,304,128z
	 M304,480h-96V320h96V480z M464,64h-96c-8.8,0-16,7.2-16,16v416c0,8.8,7.2,16,16,16h96c8.8,0,16-7.2,16-16V80
	C480,71.2,472.8,64,464,64z M464,480h-96V288h96V480z"/>
</svg>
