<?xml version="1.0" encoding="utf-8"?>
<!-- Generator: Adobe Illustrator 16.0.4, SVG Export Plug-In . SVG Version: 6.00 Build 0)  -->
<!DOCTYPE svg PUBLIC "-//W3C//DTD SVG 1.1//EN" "http://www.w3.org/Graphics/SVG/1.1/DTD/svg11.dtd">
<svg version="1.1" id="Capa_1" xmlns="http://www.w3.org/2000/svg" xmlns:xlink="http://www.w3.org/1999/xlink" x="0px" y="0px"
	 width="512px" height="512px" viewBox="0 0 512 512" enable-background="new 0 0 512 512" xml:space="preserve">
<path d="M429.751,13.271L427.454,0H304l3.301,18.771c11.173,63.55,37.161,218.268,37.161,282.229c0,49.075-39.685,89-88.462,89
	c-48.778,0-88.461-39.925-88.461-89c0-63.963,25.988-218.68,37.162-282.229L208,0H84.546l-2.297,13.271
	C68.711,91.482,46,232.864,46,301c0,116.346,94.206,211,210,211s210-94.654,210-211C466,232.867,443.289,91.484,429.751,13.271z
	 M256,480c-98.149,0-178-80.299-178-179c0-40.386,8.46-108.538,18.083-173h58.173c-9.997,65.617-18.717,134.027-18.717,173
	c0,66.721,54.039,121,120.461,121c66.423,0,120.462-54.279,120.462-121c0-38.971-8.721-107.382-18.718-173h58.173
	C425.54,192.463,434,260.616,434,301C434,399.701,354.149,480,256,480z"/>
</svg>
