<?xml version="1.0" encoding="utf-8"?>
<!-- Generator: Adobe Illustrator 16.0.4, SVG Export Plug-In . SVG Version: 6.00 Build 0)  -->
<!DOCTYPE svg PUBLIC "-//W3C//DTD SVG 1.1//EN" "http://www.w3.org/Graphics/SVG/1.1/DTD/svg11.dtd">
<svg version="1.1" id="Capa_1" xmlns="http://www.w3.org/2000/svg" xmlns:xlink="http://www.w3.org/1999/xlink" x="0px" y="0px"
	 width="512px" height="512px" viewBox="0 0 512 512" enable-background="new 0 0 512 512" xml:space="preserve">
<path d="M426.655,0H85.345C38.406,0,0,38.408,0,85.346v341.31C0,473.625,38.406,512,85.345,512h341.31
	C473.594,512,512,473.625,512,426.655V85.346C512,38.408,473.594,0,426.655,0z M406.434,219.063
	c-16.979,95.648-111.854,176.648-140.39,195.155c-28.544,18.503-54.577-7.411-64.019-26.997
	c-10.808-22.354-43.205-143.47-51.684-153.51c-8.482-10.019-33.938,10.04-33.938,10.04l-12.346-16.188
	c0,0,51.691-61.724,91.02-69.439c41.702-8.183,41.64,64.033,51.67,104.121c9.7,38.782,16.22,60.976,24.688,60.976
	c8.484,0,24.69-21.631,42.426-54.785c17.768-33.188-0.77-62.504-35.486-41.646C292.268,143.464,423.406,123.43,406.434,219.063z"/>
</svg>
