<?xml version="1.0" encoding="utf-8"?>
<!-- Generator: Adobe Illustrator 16.0.4, SVG Export Plug-In . SVG Version: 6.00 Build 0)  -->
<!DOCTYPE svg PUBLIC "-//W3C//DTD SVG 1.1//EN" "http://www.w3.org/Graphics/SVG/1.1/DTD/svg11.dtd">
<svg version="1.1" id="Capa_1" xmlns="http://www.w3.org/2000/svg" xmlns:xlink="http://www.w3.org/1999/xlink" x="0px" y="0px"
	 width="512px" height="512px" viewBox="0 0 512 512" enable-background="new 0 0 512 512" xml:space="preserve">
<path d="M128,96L64,32H32v32l64,64L128,96z M160,0h32v64h-32V0z M288,160h64v32h-64V160z M320,64V32h-32l-64,64l32,32L320,64z
	 M0,160h64v32H0V160z M160,288h32v64h-32V288z M32,288v32h32l64-64l-32-32L32,288z M505,441L186.941,122.941
	c-9.334-9.334-24.607-9.334-33.941,0L122.941,153c-9.334,9.334-9.334,24.607,0,33.941L441,505c9.334,9.334,24.607,9.334,33.941,0
	L505,474.941C514.334,465.607,514.334,450.334,505,441z M240,272l-96-96l32-32l96,96L240,272z"/>
</svg>
