<?xml version="1.0" encoding="utf-8"?>
<!-- Generator: Adobe Illustrator 16.0.4, SVG Export Plug-In . SVG Version: 6.00 Build 0)  -->
<!DOCTYPE svg PUBLIC "-//W3C//DTD SVG 1.1//EN" "http://www.w3.org/Graphics/SVG/1.1/DTD/svg11.dtd">
<svg version="1.1" id="Capa_1" xmlns="http://www.w3.org/2000/svg" xmlns:xlink="http://www.w3.org/1999/xlink" x="0px" y="0px"
	 width="512px" height="512px" viewBox="0 0 512 512" enable-background="new 0 0 512 512" xml:space="preserve">
<path d="M256,0C114.615,0,0,114.614,0,256c0,141.385,114.614,256,256,256c141.385,0,256-114.615,256-256
	C512,114.614,397.385,0,256,0z M352,128c17.673,0,32,21.49,32,48s-14.327,48-32,48s-32-21.49-32-48S334.327,128,352,128z
	 M176,156.031c29.823,0,51,11.166,51,28.641c0,3.699,1.906,21.497-0.085,24.797c-7.414-12.288-27.405-21.094-50.915-21.094
	s-43.501,8.806-50.915,21.094c-1.991-3.3-0.085-21.098-0.085-24.797C125,167.197,146.177,156.031,176,156.031z M250.172,416
	c-59.621,0-111.929-32.141-141.446-80.477c35.205,27.531,97.267,32.906,162.644,19.99c70.124-13.854,124.555-45.771,144.227-88.298
	C404.77,351.195,334.838,416,250.172,416z"/>
</svg>
