<?xml version="1.0" encoding="utf-8"?>
<!-- Generator: Adobe Illustrator 16.0.4, SVG Export Plug-In . SVG Version: 6.00 Build 0)  -->
<!DOCTYPE svg PUBLIC "-//W3C//DTD SVG 1.1//EN" "http://www.w3.org/Graphics/SVG/1.1/DTD/svg11.dtd">
<svg version="1.1" id="Capa_1" xmlns="http://www.w3.org/2000/svg" xmlns:xlink="http://www.w3.org/1999/xlink" x="0px" y="0px"
	 width="512px" height="512px" viewBox="0 0 512 512" enable-background="new 0 0 512 512" xml:space="preserve">
<path d="M256,0C114.615,0,0,114.615,0,256s114.615,256,256,256s256-114.615,256-256S397.385,0,256,0z M352,128
	c17.673,0,32,14.327,32,32s-14.327,32-32,32s-32-14.327-32-32S334.327,128,352,128z M128,160c0-17.673,14.327-32,32-32
	s32,14.327,32,32s-14.327,32-32,32S128,177.673,128,160z M165.622,403.193l-11.244-38.387l218.5-64l11.244,38.387L165.622,403.193z"
	/>
</svg>
