<?xml version="1.0" encoding="utf-8"?>
<!-- Generator: Adobe Illustrator 16.0.4, SVG Export Plug-In . SVG Version: 6.00 Build 0)  -->
<!DOCTYPE svg PUBLIC "-//W3C//DTD SVG 1.1//EN" "http://www.w3.org/Graphics/SVG/1.1/DTD/svg11.dtd">
<svg version="1.1" id="Capa_1" xmlns="http://www.w3.org/2000/svg" xmlns:xlink="http://www.w3.org/1999/xlink" x="0px" y="0px"
	 width="512px" height="512px" viewBox="0 0 512 512" enable-background="new 0 0 512 512" xml:space="preserve">
<path d="M259.371,272.352l59.015,157.472c0.39,0.925,0.866,1.774,1.375,2.577c-19.956,6.841-41.401,10.6-63.759,10.6
	c-18.847,0-37.036-2.69-54.244-7.619L259.371,272.352z M448,255.997c0,68.985-38.388,129.215-95.47,161.629l58.643-165.136
	c10.956-26.677,14.603-48.01,14.603-66.975c0-6.886-0.47-13.274-1.294-19.229C439.47,192.917,448,223.482,448,255.997z M64,255.996
	c0-27.112,5.972-52.849,16.626-76.103l91.589,244.392C108.161,393.98,64,330.009,64,255.996z M95.582,153.284
	C129.911,102.523,188.924,69,256.004,69c49.984,0,95.496,18.613,129.654,49.098c-0.828-0.049-1.635-0.151-2.488-0.151
	c-18.86,0-32.243,16.001-32.243,33.188c0,15.411,9.131,28.448,18.86,43.858c7.3,12.453,15.827,28.454,15.827,51.571
	c0,16-6.318,34.575-14.608,60.45L351.85,369.33l-69.39-201.009c11.558-0.589,21.974-1.775,21.974-1.775
	c10.348-1.194,9.129-16.002-1.223-15.411c0,0-31.102,2.376-51.175,2.376c-18.867,0-50.567-2.376-50.567-2.376
	c-10.355-0.59-11.57,14.815-1.219,15.411c0,0,9.795,1.183,20.139,1.775l29.911,79.825l-42.022,122.728l-69.917-202.553
	c11.571-0.591,21.976-1.775,21.976-1.775c10.337-1.194,9.116-16.002-1.229-15.411c0,0-31.093,2.376-51.17,2.376
	C104.335,153.511,100.087,153.425,95.582,153.284z M426,0H86C38.7,0,0,38.7,0,86v340c0,47.3,38.7,86,86,86h340c47.3,0,86-38.7,86-86
	V86C512,38.7,473.3,0,426,0z M480,256c0,123.712-100.288,224-224,224S32,379.712,32,256S132.288,32,256,32S480,132.288,480,256z"/>
</svg>
