<?xml version="1.0" encoding="utf-8"?>
<!-- Generator: Adobe Illustrator 16.0.4, SVG Export Plug-In . SVG Version: 6.00 Build 0)  -->
<!DOCTYPE svg PUBLIC "-//W3C//DTD SVG 1.1//EN" "http://www.w3.org/Graphics/SVG/1.1/DTD/svg11.dtd">
<svg version="1.1" id="Capa_1" xmlns="http://www.w3.org/2000/svg" xmlns:xlink="http://www.w3.org/1999/xlink" x="0px" y="0px"
	 width="512px" height="512px" viewBox="0 0 512 512" enable-background="new 0 0 512 512" xml:space="preserve">
<path d="M424,320l-7.429-208.01C416.257,103.195,423.2,96,432,96h64c8.8,0,14.734,7.088,13.188,15.751L472,320 M480,388
	c0,15.4-12.6,28-28,28h-8c-15.4,0-28-12.6-28-28v-8c0-15.4,12.6-28,28-28h8c15.4,0,28,12.6,28,28V388z M192,96
	C85.961,96,0,167.634,0,256c0,88.365,85.961,160,192,160s192-71.635,192-160C384,167.634,298.039,96,192,96z M320,224h-37.131
	L224,282.87V320h48v32H144v-32h48v-37.13L101.13,192H80.099v-32h95.803v32H154.87L208,245.13l16-16V192h96V224z"/>
</svg>
