<?xml version="1.0" encoding="utf-8"?>
<!-- Generator: Adobe Illustrator 16.0.4, SVG Export Plug-In . SVG Version: 6.00 Build 0)  -->
<!DOCTYPE svg PUBLIC "-//W3C//DTD SVG 1.1//EN" "http://www.w3.org/Graphics/SVG/1.1/DTD/svg11.dtd">
<svg version="1.1" id="Capa_1" xmlns="http://www.w3.org/2000/svg" xmlns:xlink="http://www.w3.org/1999/xlink" x="0px" y="0px"
	 width="512px" height="512px" viewBox="0 0 512 512" enable-background="new 0 0 512 512" xml:space="preserve">
<path d="M304.438,326.734c-8.641,8.713-1.334,24.563-1.334,24.563l65.046,108.609c0,0,10.68,14.319,19.932,14.319
	c9.295,0,18.477-7.635,18.477-7.635l51.423-73.504c0,0,5.18-9.273,5.299-17.396c0.186-11.553-17.228-14.717-17.228-14.717
	l-121.744-39.096C324.307,321.881,312.379,318.715,304.438,326.734z M298.266,271.992c6.23,10.564,23.414,7.486,23.414,7.486
	l121.47-35.503c0,0,16.553-6.733,18.916-15.709c2.319-8.977-2.73-19.811-2.73-19.811l-58.049-68.376c0,0-5.031-8.646-15.469-9.516
	c-11.509-0.979-18.591,12.949-18.591,12.949l-68.635,108.005C298.592,251.519,292.525,262.275,298.266,271.992z M240.877,229.884
	c14.304-3.522,16.574-24.302,16.574-24.302l-0.972-172.935c0,0-2.157-21.333-11.743-27.116c-15.035-9.121-19.491-4.359-23.798-3.722
	L120.09,39.281c0,0-9.877,3.268-15.021,11.509c-7.345,11.676,7.464,28.772,7.464,28.772L217.355,222.44
	C217.355,222.44,227.7,233.138,240.877,229.884z M215.972,299.869c0.361-13.338-16.015-21.35-16.015-21.35L91.559,223.757
	c0,0-16.063-6.623-23.861-2.008c-5.975,3.53-11.268,9.92-11.786,15.567l-7.06,86.907c0,0-1.058,15.057,2.845,21.909
	c5.527,9.722,23.714,2.951,23.714,2.951l126.548-27.972C206.875,317.807,215.496,317.51,215.972,299.869z M247.44,346.771
	c-10.863-5.578-23.862,5.975-23.862,5.975l-84.734,93.283c0,0-10.572,14.264-7.884,23.024c2.533,8.209,6.727,12.289,12.659,15.164
	l85.096,26.863c0,0,10.317,2.143,18.129-0.121c11.09-3.215,9.047-20.576,9.047-20.576l1.923-126.301
	C257.814,364.084,257.381,351.916,247.44,346.771z"/>
</svg>
