<?xml version="1.0" encoding="utf-8"?>
<!-- Generator: Adobe Illustrator 16.0.4, SVG Export Plug-In . SVG Version: 6.00 Build 0)  -->
<!DOCTYPE svg PUBLIC "-//W3C//DTD SVG 1.1//EN" "http://www.w3.org/Graphics/SVG/1.1/DTD/svg11.dtd">
<svg version="1.1" id="Capa_1" xmlns="http://www.w3.org/2000/svg" xmlns:xlink="http://www.w3.org/1999/xlink" x="0px" y="0px"
	 width="512px" height="512px" viewBox="0 0 512 512" enable-background="new 0 0 512 512" xml:space="preserve">
<path d="M416,64H96c-52.8,0-96,43.2-96,96v192c0,52.8,43.2,96,96,96h320c52.8,0,96-43.2,96-96V160C512,107.2,468.8,64,416,64z
	 M480,352c0,16.989-6.688,33.031-18.827,45.173C449.031,409.312,432.99,416,416,416H96c-16.989,0-33.031-6.688-45.172-18.827
	C38.687,385.031,32,368.989,32,352V160c0-16.989,6.687-33.031,18.828-45.172C62.969,102.687,79.011,96,96,96h320
	c16.989,0,33.031,6.687,45.173,18.828C473.314,126.969,480,143.011,480,160V352z M192,384l160-128L192,128V384z"/>
</svg>
